<svg xmlns="http://www.w3.org/2000/svg" height="249.06" viewBox="0 0 250 249.05872" width="250"><g transform="matrix(1.25 0 0 -1.25 -258.5 620.53)"><g transform="matrix(1.9896 0 0 1.9896 -302.1 -391.17)"><path d="m306 445.67c27.497 0 49.859-22.278 49.859-49.67s-22.362-49.67-49.859-49.67-49.859 22.277-49.859 49.67c0 27.391 22.362 49.67 49.859 49.67" fill="#c8102e"/><path d="m306 347.19c27.023 0 48.998 21.904 48.998 48.812 0 26.92-21.976 48.814-48.998 48.814-27.024 0-48.998-21.894-48.998-48.814 0-26.908 21.975-48.812 48.998-48.812" fill="#fff"/><path d="m61.463 2.4805c-0.9165 0.0135-1.8185 0.049375-2.7227 0.09375-0.03088 1.126-0.03033 2.3198-0.04883 3.5566-0.0011 0.19462 0 0.45186 0 0.64648 1.0151-0.08 2.0436-0.11133 3.0723-0.11133v-0.64648c-0.094-1.2382-0.206-2.4255-0.301-3.5391zm1.7637 0c-0.11088 1.1136-0.21692 2.3009-0.31055 3.5391-0.0063 0.19338 0 0.45369 0 0.64844 1.0286 0 2.0426 0.046625 3.0527 0.10938v-0.64648c0-1.2381-0.000328-2.4308-0.01758-3.5566-0.89925-0.044375-1.8081-0.08025-2.7246-0.09375zm-6.2637 0.23047c-0.903 0.076375-1.8068 0.16859-2.7109 0.29297v0.64648c0.07637 1.1124 0.15638 2.3062 0.25 3.543 1.0151-0.14162 2.0086-0.24622 3.041-0.33984v-0.64648c-0.191-1.2196-0.37558-2.3961-0.58008-3.4961zm10.689 0c-0.18725 1.1-0.37525 2.2765-0.5625 3.4961-0.01475 0.19338 0 0.45103 0 0.64453 0.32525 0.0295 0.64725 0.065656 0.96875 0.097656 0.20088 0.021 0.39998 0.038422 0.59961 0.060547 0.49638 0.05425 0.99178 0.11542 1.4883 0.18555 0.07512-1.2368 0.1715-2.4306 0.23438-3.543v-0.64844c-0.6295-0.085-1.256-0.15264-1.8867-0.21289-0.07138-0.0075-0.14139-0.01914-0.21289-0.02539-0.208-0.0185-0.418-0.0375-0.629-0.0548zm-15.113 0.5585c-0.88572 0.138-1.7958 0.31189-2.668 0.49414v0.64453c0.1429 1.1136 0.31645 2.2892 0.5 3.5137 0.98428-0.21812 1.9997-0.40347 3.0098-0.55859v-0.64648c-0.28088-1.206-0.5622-2.3656-0.8418-3.4473zm19.6 0.00195c-0.27962 1.0951-0.56092 2.2393-0.8418 3.4453-0.02213 0.19212 0 0.45186 0 0.64648 1.0114 0.16875 2.0083 0.35552 3.0098 0.57227 0.18238-1.2195 0.35647-2.4127 0.51172-3.5078v-0.64648c-0.89-0.186-1.776-0.3545-2.68-0.5097zm-23.963 0.877c-0.88696 0.218-1.7763 0.44769-2.6484 0.69531v0.64844c0.24885 1.1 0.49842 2.2745 0.7793 3.4805 0.9658-0.29688 1.9631-0.55744 2.9609-0.78906v-0.64648c-0.375-1.1935-0.751-2.3193-1.092-3.3886zm28.357 0.017578c-0.10838 0.30788-0.21626 0.62241-0.32226 0.94141-0.06037 0.18112-0.12127 0.36994-0.18164 0.55469-0.20212 0.611-0.40477 1.2345-0.61914 1.875-0.03075 0.19225 0 0.45311 0 0.64648 0.99788 0.23037 1.9971 0.49219 2.9629 0.78906 0.29812-1.2072 0.54089-2.3665 0.79102-3.4629v-0.64844c-0.872-0.2477-1.745-0.4786-2.631-0.6954zm-32.658 1.1875c-0.87094 0.27962-1.731 0.59019-2.5859 0.91406v0.64648c0.31166 1.0681 0.67133 2.2147 1.0273 3.3887 0.94855-0.3585 1.9142-0.70036 2.8984-1.0059v-0.64648c-0.45-1.1444-0.903-2.2584-1.34-3.2969zm36.928 0.019531c-0.43612 1.0322-0.90417 2.133-1.3574 3.2773-0.03575 0.191 0 0.45311 0 0.64648 0.98425 0.324 1.9487 0.64753 2.8984 1.0195 0.359-1.1883 0.714-2.3184 1.031-3.4v-0.64844c-0.86-0.3239-1.714-0.6149-2.572-0.8946zm-41.121 1.5117c-0.85492 0.35475-1.6919 0.71286-2.5234 1.0996v0.64648c0.40529 1.0521 0.83245 2.1642 1.2969 3.3086 0.91652-0.42988 1.8542-0.83325 2.8027-1.2188v-0.64648c-0.531-1.1009-1.08-2.1839-1.577-3.1902zm45.346 0.035156c-0.51612 0.98912-1.0654 2.0543-1.6074 3.168-0.04438 0.1885 0 0.45116 0 0.64453 0.95225 0.3905 1.8882 0.78973 2.8047 1.2246 0.46812-1.1444 0.90427-2.2568 1.291-3.3125v-0.64648c-0.823-0.3856-1.651-0.7418-2.489-1.0781zm-22.703 0.79297c-30.101 0-54.582 24.386-54.582 54.375 0 29.97 24.481 54.373 54.582 54.373s54.578-24.403 54.578-54.373c0-29.989-24.477-54.375-54.578-54.375zm0 0.74023c29.688 0 53.84 24.061 53.84 53.635s-24.151 53.633-53.84 53.633c-29.688 0-53.844-24.059-53.844-53.633s24.155-53.635 53.844-53.635zm26.688 0.27148c-0.574 0.96212-1.1813 1.9825-1.8047 3.0469-0.0505 0.18725 0 0.45186 0 0.64648 0.44725 0.22662 0.89103 0.45462 1.332 0.6875 0.133 0.069 0.26348 0.14334 0.39648 0.21484 0.329 0.17738 0.658 0.35181 0.98438 0.53906 0.52612-1.1172 1.0409-2.1957 1.5078-3.2207v-0.64453c-0.797-0.44838-1.5881-0.86541-2.416-1.2695zm-53.381 0.00195c-0.82414 0.40288-1.6334 0.8377-2.4316 1.2676v0.64648c0.46811 1.0372 0.98408 2.1002 1.5273 3.2188 0.89065-0.51 1.7964-0.97545 2.7129-1.4238v-0.64648c-0.624-1.069-1.231-2.1013-1.809-3.0634zm21.809 1.8203-2.168 0.36133 0.03711 0.22266c0.06663-0.01125 0.13945-0.01547 0.2207-0.01172 0.08138 0.0036 0.12672 0.03392 0.13672 0.0918 0.0086 0.04925-0.0051 0.10775-0.03711 0.17187-0.03088 0.06525-0.07059 0.15209-0.12109 0.26172l-1.1191 2.2363c-0.13675-0.15525-0.31184-0.34325-0.52734-0.5625-0.21438-0.21925-0.42034-0.43238-0.62109-0.64062-0.19962-0.20938-0.37709-0.39625-0.52734-0.5625-0.15042-0.16512-0.22883-0.27484-0.23633-0.32422-0.01487-0.0825 0.0094-0.13988 0.07227-0.17188 0.06287-0.03087 0.1312-0.05195 0.20508-0.06445l-0.03711-0.22266-2.5781 0.42578 0.03711 0.22461c0.08254-0.0135 0.18901-0.0031 0.31836 0.03516 0.12935 0.03812 0.22928 0.09534 0.30078 0.16797l2.9492 2.9492 0.36523 2.207c0.01237 0.07388-0.0037 0.13419-0.04687 0.17969-0.04313 0.04562-0.10261 0.07344-0.17773 0.08594l0.03711 0.22266 1.959-0.32422-0.03711-0.22266c-0.18962 0.03087-0.29764-0.02791-0.32227-0.17578l-0.36523-2.207 1.6113-3.3359c0.07512-0.165 0.13981-0.29798 0.19531-0.39648 0.05537-0.09863 0.11189-0.17497 0.16602-0.23047 0.05425-0.05537 0.10927-0.09506 0.16602-0.11719 0.05412-0.021 0.11514-0.03758 0.18164-0.04883l-0.03711-0.22461zm9.5664 0.08594c-0.23683 0.01033-0.47747 0.03834-0.72266 0.08203-0.489 0.08875-0.94453 0.24912-1.3633 0.48438-0.42138 0.23412-0.77719 0.54911-1.0703 0.94336-0.2945 0.3955-0.46892 0.88166-0.5293 1.457-0.05912 0.574 0.01495 1.0852 0.2207 1.5312 0.207 0.44712 0.49014 0.8272 0.85352 1.1426 0.3635 0.31537 0.77628 0.56062 1.2383 0.73437 0.46188 0.17363 0.92261 0.28516 1.3809 0.33203 0.45825 0.048 0.93217 0.03216 1.4199-0.04297 0.48788-0.07637 0.94133-0.23084 1.3613-0.46484 0.42012-0.23538 0.77719-0.54994 1.0703-0.94531 0.29325-0.3955 0.46892-0.88108 0.5293-1.4551 0.05912-0.57525-0.0137-1.084-0.2207-1.5312-0.20575-0.44588-0.49209-0.82916-0.85547-1.1445-0.36225-0.31538-0.77433-0.56595-1.2363-0.75195-0.46075-0.186-0.92066-0.30344-1.3789-0.35156-0.22912-0.02337-0.46044-0.02986-0.69727-0.01953zm25.98 0.25781c-0.65412 0.91275-1.3398 1.8882-2.0566 2.9082-0.058 0.18475 0 0.45186 0 0.64648 0.89062 0.51 1.7446 1.0503 2.5859 1.623 0.63688-1.0828 1.2292-2.1015 1.7773-3.0723v-0.64844c-0.749-0.51488-1.5281-0.98778-2.3066-1.457zm-61.375 0.03516c-0.7921 0.46062-1.5726 0.95647-2.3203 1.4492v0.64648c0.56175 0.97562 1.1667 2.0137 1.7949 3.0645 0.8537-0.558 1.7139-1.0997 2.5996-1.627v-0.64648c-0.71696-1.0028-1.4201-1.9776-2.0742-2.8867zm42.408 0.76367-0.06445 0.21875c0.20812 0.06038 0.29188 0.16252 0.25 0.30664l-1.6016 5.4766c-0.04188 0.14412-0.1687 0.18662-0.37695 0.125l-0.06445 0.2168 2.0508 0.59961 0.0625-0.2168c-0.10475-0.0295-0.18627-0.07536-0.24414-0.13086-0.058-0.05663-0.07486-0.12061-0.05273-0.19336l0.68359-2.3379 2.3633 0.69141c0.16025 0.04675 0.27894 0.10988 0.35156 0.1875 0.07275 0.07888 0.08147 0.21174 0.02734 0.39648l0.2168 0.0625 0.50976-1.7363-0.2168-0.06445c-0.03325 0.11212-0.09806 0.17344-0.19531 0.17969-0.0985 0.0061-0.22855-0.01575-0.38867-0.0625l-2.3633-0.69141 0.4375-1.4941 3.9082 1.1426c0.16762 0.04925 0.27861 0.1058 0.33398 0.16992 0.05437 0.064 0.0708 0.13977 0.04492 0.22852l0.2168 0.06445 0.4668-1.5918-0.21875-0.06445c-0.02587 0.08875-0.08019 0.14952-0.16406 0.18164-0.08375 0.032-0.20945 0.02386-0.37695-0.02539l-5.5957-1.6387zm-6.9121 0.10156c0.16075-0.0086 0.31958-0.0049 0.47852 0.01172 0.31662 0.032 0.62809 0.11505 0.93359 0.24805 0.30675 0.133 0.57712 0.30641 0.8125 0.51953 0.23525 0.21312 0.4175 0.46581 0.54688 0.75781 0.1305 0.29062 0.1775 0.61189 0.14062 0.96289-0.03575 0.34988-0.14673 0.65348-0.33398 0.91211-0.186 0.25875-0.41666 0.46753-0.69141 0.62891-0.27225 0.16138-0.57389 0.276-0.90039 0.34375-0.32762 0.0665-0.64905 0.08473-0.9668 0.05273-0.31538-0.03337-0.62614-0.11505-0.93164-0.24805-0.30675-0.13312-0.57712-0.30711-0.8125-0.52148-0.234-0.21312-0.4175-0.46581-0.54687-0.75781-0.13038-0.29075-0.17763-0.60981-0.14063-0.96094 0.0345-0.34988 0.14798-0.65348 0.33398-0.91211 0.18725-0.25875 0.41595-0.46948 0.68945-0.63086 0.27338-0.16138 0.57264-0.2753 0.90039-0.3418 0.16381-0.03388 0.32753-0.05583 0.48828-0.06445zm-19.318 0.30273-0.21289 0.07617c0.03937 0.11088 0.03347 0.19897-0.01953 0.26172-0.05296 0.06412-0.116 0.10889-0.1875 0.13476l-5.248 1.8887c-0.07145 0.026-0.14727 0.03037-0.22852 0.01563-0.08134-0.01475-0.14102-0.07788-0.18164-0.1875l-0.21289 0.07617 0.59766 1.6562 0.21289-0.07813c-0.03937-0.10962-0.03347-0.19689 0.01953-0.25977 0.05298-0.064 0.11405-0.10889 0.18555-0.13476l1.9492-0.70117 1.6953 4.7051c0.02575 0.07025 0.02294 0.12989-0.0078 0.18164-0.02961 0.05175-0.07341 0.0878-0.12891 0.10742l0.07617 0.21289 1.8223-0.65625-0.07813-0.21289c-0.17236 0.06166-0.28442 0.02197-0.33594-0.11914l-1.6953-4.7051 1.9512-0.70117c0.07145-0.026 0.14726-0.03233 0.22852-0.01758 0.08134 0.016 0.14102 0.07983 0.18164 0.18945l0.212-0.077-0.596-1.656zm48.924 1.1953c-0.73412 0.86475-1.4822 1.7945-2.2793 2.748-0.0665 0.18238 0 0.45381 0 0.64844 0.84638 0.59012 1.6679 1.1916 2.4785 1.8125 0.6985-1.0238 1.3727-1.9958 1.9961-2.9395v-0.64844c-0.72188-0.55438-1.4512-1.0976-2.1953-1.6211zm-68.805 0.03125c-0.75268 0.52725-1.4832 1.0686-2.2051 1.6094v0.64648c0.64181 0.94 1.3152 1.9155 2.0137 2.9355 0.80935-0.63438 1.6245-1.2186 2.4609-1.8086v-0.64844c-0.77362-0.95713-1.5403-1.8696-2.2695-2.7344zm11.227 2.5859-1.8457 0.9707 0.10352 0.19922c0.19216-0.101 0.32553-0.08612 0.39453 0.04687l2.6543 5.0508c0.07021 0.133 0.0086 0.25056-0.18359 0.35156l0.10547 0.19922 1.8457-0.96875-0.10547-0.20117c-0.19218 0.101-0.32428 0.08613-0.39453-0.04688l-2.6523-5.0508c-0.07145-0.13312-0.0098-0.25056 0.18359-0.35156l-0.107-0.2zm61.145 0.08789c-0.797 0.80688-1.6228 1.6709-2.4766 2.5664-0.0715 0.17988 0 0.45186 0 0.64648 0.79212 0.65162 1.5706 1.3001 2.3184 1.9961 0.77975-0.962 1.5289-1.9019 2.2324-2.7852v-0.64648c-0.68988-0.60238-1.3757-1.2057-2.0742-1.7773zm-75.961 0.04492c-0.71572 0.58888-1.4017 1.1777-2.0879 1.7949v0.64648c0.71819 0.86475 1.4693 1.7918 2.2441 2.7539 0.76622-0.6825 1.5321-1.3481 2.3242-1.9961v-0.64648c-0.855-0.897-1.684-1.747-2.481-2.554zm62.158 0.22461-0.11914 0.19336c0.1355 0.08375 0.16273 0.18828 0.08398 0.31641l-3.0059 4.8496c-0.07875 0.12812-0.18802 0.15016-0.32227 0.06641l-0.11914 0.19141 1.6133 1 0.11719-0.19141c-0.04812-0.03075-0.08319-0.07423-0.10156-0.13086-0.01975-0.05663-0.0094-0.11569 0.03125-0.17969l1.2441-2.0078 3.4375 2.1309-1.2441 2.0078c-0.08 0.12812-0.19702 0.14288-0.35352 0.04687l-0.11914 0.19141 1.6445 1.0195 0.11914-0.19336c-0.0505-0.03075-0.08501-0.07216-0.10352-0.12891-0.01975-0.05538-0.01008-0.11876 0.0293-0.18164l3.0059-4.8496c0.03937-0.064 0.08931-0.09992 0.14844-0.10742 0.05912-0.0075 0.11356 0.0043 0.16406 0.03516l0.11914-0.19141-1.6465-1.0195-0.11719 0.19141c0.1565 0.09613 0.19411 0.20976 0.11523 0.33789l-1.125 1.8164-3.4395-2.1309 1.125-1.8164c0.04075-0.064 0.08931-0.09992 0.14844-0.10742 0.05912-0.0074 0.11356 0.0025 0.16406 0.0332l0.11914-0.19141-1.6133-1zm-24.152 2.4297c-24.017 0-43.559 19.464-43.559 43.393 0 23.927 19.542 43.395 43.559 43.395s43.555-19.468 43.555-43.395c0-23.928-19.538-43.393-43.555-43.393zm-27.424 0.1582-0.18164 0.0078c-0.01109 0.07025-0.06333 0.13928-0.1582 0.20703-0.0887 0.064-0.21743 0.11828-0.38867 0.16016-0.17246 0.04062-0.37748 0.10081-0.61523 0.17969-0.23775 0.07875-0.50822 0.18747-0.8125 0.32422-0.30428 0.13788-0.63516 0.33583-0.99609 0.5957-0.42008 0.30438-0.75196 0.61948-0.99219 0.94336-0.24021 0.324-0.40692 0.63828-0.49805 0.94141-0.09125 0.30425-0.11175 0.59244-0.0625 0.86719 0.04928 0.27462 0.15121 0.51789 0.30274 0.72852 0.22544 0.31288 0.46786 0.52178 0.72656 0.62891 0.25869 0.107 0.52535 0.14626 0.79883 0.11914 0.27471-0.02838 0.55384-0.10836 0.83594-0.24024 0.28211-0.13175 0.55856-0.27906 0.83203-0.44531 0.27224-0.16638 0.53602-0.33391 0.79102-0.50391 0.255-0.16875 0.49093-0.30736 0.70898-0.41211 0.21804-0.10712 0.41543-0.16523 0.58789-0.17773 0.17246-0.0099 0.31436 0.06225 0.42773 0.21875 0.11338 0.15638 0.14045 0.32838 0.08008 0.51562-0.06036 0.1885-0.16012 0.37564-0.29688 0.55664-0.13796 0.18238-0.29165 0.3478-0.46289 0.49805-0.17 0.149-0.31198 0.26516-0.42774 0.34766-0.15645 0.11338-0.34611 0.2235-0.57031 0.32812-0.22298 0.106-0.44768 0.19272-0.67188 0.26172-0.22421 0.06887-0.43498 0.11334-0.63086 0.13672-0.19586 0.02225-0.34712 0.0096-0.45312-0.03711-0.06041-0.02837-0.11383-0.07244-0.1582-0.13281l-0.13867 0.02344 0.33203 1.6367 0.20117-0.02344c0.0024-0.08375 0.02734-0.14128 0.07422-0.17578 0.07514-0.053 0.18111-0.09298 0.32031-0.11524 0.13798-0.02212 0.31783-0.06338 0.53711-0.125 0.21928-0.06038 0.47562-0.16322 0.76758-0.30859 0.29319-0.14538 0.63345-0.3578 1.0215-0.63867 0.27718-0.20075 0.56279-0.43967 0.85352-0.7168 0.29072-0.2785 0.52812-0.58198 0.71289-0.91211 0.18479-0.33012 0.28983-0.67358 0.31445-1.0332 0.02464-0.3585-0.09266-0.71598-0.34766-1.0684-0.22051-0.3055-0.45862-0.50853-0.71484-0.61328-0.25624-0.1045-0.52216-0.14236-0.79688-0.11524-0.27471 0.02838-0.55333 0.105-0.83789 0.23438-0.28456 0.12812-0.5637 0.27516-0.83594 0.44141-0.27349 0.16638-0.53746 0.33292-0.79492 0.49805-0.25746 0.16625-0.49774 0.29869-0.7207 0.39844-0.22298 0.0985-0.42222 0.15055-0.59961 0.1543-0.17862 0.0049-0.32636-0.07453-0.44336-0.23828-0.08373-0.11462-0.11361-0.24173-0.08398-0.38086 0.02834-0.13925 0.08872-0.27955 0.18359-0.41992 0.09486-0.1405 0.21381-0.28067 0.35547-0.41992 0.1429-0.13912 0.28917-0.26272 0.43945-0.37109 0.1971-0.14288 0.40666-0.26647 0.63086-0.37109 0.2242-0.10475 0.4419-0.18838 0.65625-0.25 0.21311-0.06162 0.41144-0.0977 0.59375-0.11133 0.18232-0.0135 0.32803-0.000157 0.44141 0.04297 0.085 0.03075 0.16945 0.09078 0.25195 0.17578l0.13086-0.0332-0.21875-1.7812zm68.695 0.08203c-0.8365 0.74162-1.7289 1.5293-2.6504 2.3633v0.64844c0.73425 0.7145 1.4702 1.4237 2.1699 2.1641 0.84013-0.90925 1.6489-1.7793 2.4102-2.6133v-0.64648c-0.62325-0.664-1.2756-1.2988-1.9297-1.916zm-82.58 0.01367c-0.32645 0.31662-0.6531 0.63483-0.97461 0.95508-0.32399 0.32162-0.64269 0.64589-0.95312 0.97852-0.07025 0.17988 0 0.45311 0 0.64648 0.7613 0.834 1.5728 1.6991 2.4277 2.5996 0.7034-0.74525 1.4202-1.4563 2.168-2.1523v-0.64648c-0.91652-0.834-1.8093-1.6221-2.668-2.3809zm41.309 0.48438c23.604 0 42.816 19.139 42.816 42.654 0 23.514-19.212 42.654-42.816 42.654s-42.818-19.14-42.818-42.654c0-23.515 19.214-42.654 42.818-42.654zm-44.375 2.6543c-0.61101 0.67887-1.2013 1.3626-1.7754 2.0723-0.064 0.1835 0 0.45298 0 0.64648 0.80935 0.776 1.6821 1.5919 2.6035 2.4297 0.63689-0.78962 1.3041-1.565 1.9902-2.3066v-0.64648c-0.97935-0.77112-1.9154-1.4992-2.8184-2.1953zm88.748 0c-0.90413 0.69612-1.839 1.4242-2.8184 2.1953v0.64844c0.68612 0.74037 1.3534 1.5151 1.9902 2.3047 0.9215-0.85125 1.7941-1.654 2.6035-2.4473v-0.64648c-0.57413-0.69238-1.1655-1.3758-1.7754-2.0547zm-11.843 1.288c-0.23745 0.0157-0.47438 0.05787-0.71094 0.125-0.473 0.133-0.90876 0.4073-1.3066 0.82617-0.39788 0.41875-0.65405 0.86853-0.76367 1.3477-0.1085 0.4805-0.11636 0.95598-0.02148 1.4277 0.09487 0.47188 0.2725 0.91902 0.53125 1.3379 0.25987 0.42125 0.55675 0.78884 0.89062 1.1055 0.33388 0.31775 0.71914 0.59623 1.1504 0.83398 0.43362 0.23775 0.88778 0.39152 1.3633 0.46289 0.47425 0.07025 0.94958 0.04062 1.4238-0.09375 0.473-0.133 0.90947-0.40938 1.3086-0.82812 0.39662-0.41888 0.65139-0.86841 0.75977-1.3477 0.10962-0.48038 0.11636-0.95586 0.02148-1.4277-0.09613-0.47175-0.26758-0.92156-0.51758-1.3516-0.25012-0.42862-0.54308-0.80127-0.87695-1.1191-0.33388-0.31662-0.72181-0.59119-1.1641-0.82031-0.43975-0.22912-0.8995-0.37772-1.375-0.44922-0.23775-0.03506-0.47544-0.045-0.71289-0.0293zm0.268 1.299c0.15523-0.01262 0.31239-0.01 0.4707 0.0098 0.31412 0.03937 0.61942 0.13267 0.91992 0.2793 0.30062 0.14662 0.56525 0.32833 0.79688 0.54883 0.23162 0.21938 0.42652 0.47375 0.58789 0.76562 0.16138 0.292 0.2708 0.59533 0.32617 0.9082 0.0555 0.31175 0.04388 0.62309-0.03125 0.93359-0.07512 0.30912-0.23198 0.59266-0.47461 0.84766-0.24275 0.255-0.51747 0.42841-0.82422 0.51953-0.3055 0.08987-0.61556 0.11555-0.92969 0.07617-0.31538-0.0395-0.62262-0.1328-0.92188-0.2793-0.30062-0.14662-0.56525-0.32958-0.79688-0.54883-0.23038-0.21925-0.42652-0.47362-0.58789-0.76562-0.16138-0.29312-0.2708-0.59533-0.32617-0.9082-0.0555-0.31162-0.04512-0.62322 0.03125-0.93359 0.07388-0.31038 0.23324-0.59266 0.47461-0.84766 0.24275-0.255 0.51676-0.42841 0.82226-0.51953 0.15338-0.04562 0.30766-0.07331 0.46289-0.08594zm-68.254 0.64648c-0.13505-0.0025-0.27147 0.01362-0.4082 0.04688-0.27348 0.06663-0.54438 0.19502-0.82031 0.38476-0.27349 0.19212-0.54879 0.43484-0.82227 0.73047l-2.9238 3.1484 0.16602 0.1543c0.16508-0.17738 0.30444-0.21678 0.41406-0.11328l4.1797 3.8809c0.11092 0.10225 0.085 0.24325-0.08008 0.42188l0.16406 0.15234 1.4805-1.5918-0.16602-0.15625c-0.09732 0.10475-0.17889 0.16619-0.24414 0.17969-0.0641 0.01362-0.12419-0.0029-0.17969-0.05469l-1.6387-1.5234 1.2227-1.3164 2.377 0.32031c0.11334 0.0135 0.20205 0.02656 0.26367 0.03906 0.06406 0.01238 0.11112 0.033 0.14062 0.0625 0.032 0.02837 0.03608 0.07228 0.01758 0.12891s-0.05372 0.11189-0.10547 0.16602l0.16602 0.1543 1.5996-1.7207-0.16797-0.1543c-0.04554 0.04925-0.09952 0.09695-0.16602 0.14258-0.06652 0.048-0.15095 0.06441-0.25195 0.05078l-2.8867-0.40039c0.30181-0.473 0.45734-0.92856 0.46484-1.3672 0.0074-0.4385-0.19042-0.84691-0.5957-1.2227-0.26485-0.24512-0.53079-0.4073-0.79687-0.48242-0.13366-0.03819-0.2673-0.05806-0.40234-0.06055zm82.676 0.15625c-0.94851 0.61588-1.946 1.2806-2.9746 1.9766v0.64648c0.63687 0.78962 1.2483 1.6045 1.8223 2.4434 0.983-0.77238 1.8992-1.5174 2.7715-2.2441v-0.64648c-0.51125-0.74038-1.0722-1.4663-1.6191-2.1758zm-94.465 0.02539c-0.56174 0.71325-1.1037 1.4413-1.6211 2.1816-0.05788 0.18475 0 0.45186 0 0.64648 0.8734 0.72675 1.8096 1.4677 2.7754 2.2266 0.5913-0.81675 1.1834-1.6401 1.8203-2.4434v-0.64648c-1.0286-0.69725-2.0261-1.3576-2.9746-1.9648zm11.541 1.2129c0.06452 0.0028 0.12705 0.01478 0.18555 0.03516 0.11702 0.03937 0.22572 0.10614 0.32422 0.19727 0.09727 0.09125 0.17075 0.19339 0.21875 0.30664 0.04937 0.11462 0.06342 0.24189 0.04492 0.38477-0.01848 0.14288-0.07814 0.3045-0.18164 0.48438-0.10225 0.17738-0.25644 0.37716-0.46094 0.59766h-0.002l-1.4766 1.5938-1.3652-1.2656 1.4805-1.5938c0.2045-0.2205 0.3925-0.38816 0.5625-0.50391 0.17122-0.117 0.32709-0.18925 0.46875-0.21875 0.07022-0.01419 0.13665-0.02034 0.20117-0.01758zm-14.147 2.38c-0.49891 0.75388-0.97928 1.5297-1.4609 2.3008-0.053 0.18725 0 0.45506 0 0.64844 0.9313 0.64675 1.916 1.3244 2.9434 2.0254 0.5174-0.882 1.0723-1.7461 1.6328-2.5801v-0.64648c-0.21066-0.12312-0.42145-0.24378-0.63086-0.36328-0.24269-0.138-0.47854-0.26797-0.71875-0.40234-0.15645-0.08737-0.31354-0.17547-0.46875-0.26172-0.44-0.246-0.874-0.486-1.297-0.721zm99.686 0.01367c-0.99775 0.54075-2.0384 1.1308-3.1113 1.7344v0.64648c0.574 0.84638 1.1167 1.6968 1.6328 2.5801 1.0286-0.701 2.0084-1.3608 2.9434-2.0137v-0.64453c-0.46313-0.786-0.9486-1.544-1.4648-2.3027zm-9.5234 0.37305-0.18554 0.13086c0.1355 0.191 0.1407 0.33047 0.0176 0.41797l-3.0313 2.1309c-0.40525 0.28462-0.69861 0.57703-0.88086 0.87891-0.18112 0.30175-0.26867 0.62375-0.26367 0.96875 0.0061 0.34238 0.10459 0.70755 0.29297 1.0918 0.18725 0.38438 0.44189 0.80456 0.75976 1.2578 0.31788 0.45212 0.62695 0.8308 0.92383 1.1387 0.29812 0.30675 0.60818 0.52253 0.92968 0.64453 0.32151 0.12188 0.65458 0.14712 1.002 0.07813 0.345-0.06775 0.71975-0.2448 1.125-0.5293l3.0312-2.1309c0.12325-0.08613 0.2428-0.04864 0.35742 0.11523l0.18555-0.12891-1.1562-1.6445-0.18555 0.13086c0.14538 0.2045 0.15575 0.35125 0.0312 0.4375l-3.082 2.168c-0.43113 0.30425-0.82689 0.37286-1.1816 0.20898-0.35725-0.16388-0.72191-0.5142-1.0977-1.0488-0.37687-0.53462-0.58198-0.99817-0.61523-1.3887-0.0345-0.3905 0.16445-0.73802 0.5957-1.041l3.084-2.168c0.12312-0.08625 0.23787-0.05259 0.34374 0.09766l0.18555-0.13086-1.1856-1.6855zm-83.117 2.8203-0.11914 0.19336c0.07881 0.048 0.12211 0.11633 0.13086 0.20508 0.0099 0.08987-0.03192 0.209-0.12305 0.35938l-2.9863 4.8887 0.19336 0.11914c0.02959-0.0505 0.07228-0.08584 0.12891-0.10547 0.05671-0.01975 0.11764-0.01008 0.18164 0.0293l4.8672 2.9746c0.064 0.0395 0.10062 0.08736 0.10938 0.14648 0.0074 0.05913-0.0044 0.11356-0.03516 0.16406l0.19336 0.11914 3.0527-4.9961c0.06533-0.10725 0.12809-0.19088 0.18359-0.25 0.05542-0.059 0.13577-0.05548 0.24414 0.0098l0.11719-0.19336-1.4688-0.89844-0.11719 0.19336c0.08504 0.05288 0.13188 0.12794 0.14062 0.22656 0.0086 0.0985-0.01873 0.20009-0.08398 0.30859l-2.19 3.579-1.48-0.904 1.285-2.1c0.08622-0.14288 0.17856-0.24052 0.27344-0.29102 0.09485-0.04925 0.22288-0.02483 0.38672 0.07617l0.11914-0.19336-1.6738-1.0215-0.11719 0.19336c0.16506 0.101 0.24312 0.20048 0.23438 0.30273-0.0086 0.10338-0.05703 0.22627-0.14453 0.36914l-1.2852 2.1016-1.3301-0.8125 2.123-3.4727c0.09239-0.15025 0.17558-0.24425 0.25195-0.28125 0.07639-0.03575 0.1555-0.03042 0.23437 0.01758l0.118-0.192-1.415-0.865zm-9.3652 0.5625c-0.43732 0.78962-0.87204 1.5954-1.2773 2.4121-0.045625 0.1885 0 0.45186 0 0.64648 0.97812 0.5715 2.008 1.176 3.0859 1.7969 0.44841-0.914 0.93273-1.8094 1.4316-2.6914v-0.64648c-1.121-0.54075-2.1993-1.052-3.2402-1.5176zm104.34 0.031c-1.0275 0.478-2.1173 0.97666-3.2383 1.5039v0.64648c0.49887 0.87838 0.98201 1.7771 1.4316 2.6875 1.0779-0.61725 2.1238-1.2078 3.0859-1.793v-0.64648c-0.40525-0.80688-0.84205-1.6101-1.2793-2.3984zm-72.945 1.7793v2.4336l10.27 3.2422c0.03326 0 0.16994-0.0147 0.22656-0.08008v-2.2617l-10.496-3.334zm42.244 0-10.592 3.4316v2.3379c1.2578-0.39425 2.4819-0.71834 3.625-1.1211 0.56175-0.19588 1.0987-0.41506 1.6074-0.57031 0.59012-0.18975 1.2167-0.35473 1.7637-0.53711 0.95462-0.31038 1.9588-0.72086 2.916-0.97461 0.3005-0.074 0.68844-0.15658 0.67969-0.4707v-2.0957zm-31.475 0.91406v4.4453h20.553v-4.4453h-20.553zm-44.191 1.219c-0.3917 0.82-0.7484 1.658-1.1094 2.505-0.03825 0.18975 0 0.45186 0 0.64648 1.0151 0.51 2.0887 1.0198 3.2109 1.5605 0.38681-0.93988 0.79633-1.8848 1.2324-2.7988v-0.64648c-1.153-0.447-2.2748-0.882-3.3342-1.267zm108.41 0.0625c-1.0606 0.38562-2.1831 0.80145-3.3535 1.2363v0.64648c0.43612 0.92638 0.84762 1.854 1.2344 2.7988 1.1222-0.54212 2.1996-1.0648 3.2109-1.5625v-0.64453c-0.34375-0.834-0.70505-1.6726-1.0918-2.4746zm-74.996 1.6758v0.20312c-0.0062 0.1245 0.21639 0.65645 0.36914 0.87695 0.22914 0.33138 0.75894 0.79038 1.0645 0.90625 2.7372 1.0028 8.2533 2.8397 8.3789 2.8262h0.28711c-0.15029-0.36212-0.37739-0.64512-0.43164-0.95312-0.06529-0.32025 0.07102-0.76819-0.24805-0.88281-3.0452-1.0791-9.0553-2.9828-9.1797-2.9766h-0.24023zm42.09 0.10547-9.4883 2.9766v0.74219c-0.0025 0.3795-0.43947 0.82509-0.54297 1.1836 2.2655-0.74038 4.492-1.4254 6.6934-2.1152 0.65288-0.207 1.3807-0.46678 2.0176-0.70703 0.81675-0.308 1.2711-1.224 1.3203-2.0801zm23.664 0.22852c-0.27962-0.0086-0.53681 0.03853-0.77343 0.14453-0.35225 0.15762-0.60788 0.35041-0.76563 0.58203-0.15887 0.23038-0.253 0.48431-0.28125 0.75781-0.0296 0.27475-0.008 0.56419 0.0625 0.86719 0.0715 0.303 0.16033 0.60575 0.26758 0.90625 0.10588 0.30062 0.21475 0.59441 0.32812 0.87891 0.11338 0.28338 0.1994 0.54322 0.25977 0.77734 0.058 0.23525 0.0754 0.44008 0.0508 0.61133-0.0235 0.17125-0.1234 0.29612-0.30078 0.375-0.17487 0.0775-0.34898 0.06808-0.52148-0.0293-0.17238-0.09725-0.33218-0.23192-0.48243-0.4043-0.15025-0.17125-0.28045-0.35631-0.39257-0.55469-0.11213-0.19712-0.19604-0.36294-0.25391-0.49219-0.0789-0.17625-0.1465-0.3828-0.20312-0.62305-0.0566-0.24138-0.0951-0.47889-0.11719-0.71289-0.0222-0.23288-0.0242-0.4467-0.006-0.64258 0.0185-0.19712 0.0624-0.34192 0.1289-0.43555 0.0395-0.05425 0.0951-0.09816 0.16407-0.12891l0.006-0.14062-1.6699-0.01172-0.0195 0.20117c0.0814 0.0185 0.134 0.0565 0.15625 0.10937 0.038 0.08388 0.0544 0.19739 0.0469 0.33789-0.005 0.14038-0.001 0.32291 0.0137 0.55078 0.0135 0.22662 0.0632 0.49978 0.14453 0.81641 0.0812 0.31662 0.21944 0.69208 0.41406 1.127 0.14038 0.31412 0.31618 0.64325 0.5293 0.98438 0.21063 0.34125 0.45839 0.63602 0.74414 0.88476 0.28575 0.24888 0.60102 0.42228 0.94727 0.51953 0.34612 0.09862 0.71931 0.05823 1.1172-0.11914 0.34375-0.154 0.59097-0.34509 0.7461-0.57422 0.154-0.23038 0.24772-0.48319 0.27734-0.75781 0.0284-0.2735 0.009-0.56169-0.0586-0.86719-0.0677-0.3055-0.15447-0.60841-0.26172-0.91016-0.10713-0.30062-0.21447-0.59303-0.32422-0.87891-0.10837-0.28575-0.18848-0.54811-0.24023-0.78711-0.0517-0.23775-0.0626-0.44426-0.0293-0.61914 0.032-0.175 0.13947-0.30409 0.32422-0.38672 0.12937-0.058 0.25887-0.0587 0.39062-0.002 0.13063 0.05662 0.2548 0.14558 0.37305 0.26758 0.11825 0.12075 0.23147 0.26609 0.33984 0.43359 0.10725 0.1675 0.19636 0.33641 0.27149 0.50391 0.0986 0.22175 0.17775 0.45311 0.23437 0.69336 0.0566 0.2415 0.0941 0.47369 0.11133 0.69531 0.0159 0.22175 0.01 0.42252-0.0137 0.60352-0.0259 0.18112-0.0699 0.3227-0.13281 0.42383-0.0493 0.0775-0.12474 0.14611-0.22461 0.20898l0.006 0.13477 1.7871 0.15234 0.0293-0.17969c-0.0652-0.02463-0.12192-0.09014-0.16992-0.19727-0.0444-0.09987-0.0692-0.23669-0.0742-0.41406-0.005-0.17612-0.0225-0.38784-0.0508-0.63672-0.0284-0.24888-0.0789-0.53816-0.15039-0.86328-0.0726-0.32525-0.19778-0.69045-0.37891-1.0957-0.21187-0.47438-0.45345-0.86302-0.7207-1.166-0.26737-0.30188-0.53998-0.52819-0.81836-0.67969-0.27837-0.15038-0.55619-0.22953-0.83594-0.23828zm-92.109 1.418-0.77734 2.0566 0.21289 0.08008c0.08254-0.21938 0.18617-0.30652 0.31055-0.25977 0.06283 0.02463 0.16044 0.10895 0.29102 0.25195 0.12811 0.14288 0.27778 0.29945 0.44531 0.4707l2.6309 2.6699-3.8008 0.28711c-0.2316 0.01975-0.42507 0.03869-0.58398 0.05469s-0.28094 0.0066-0.36719-0.02539c-0.07883-0.02963-0.12211-0.07509-0.13086-0.13672-0.0074-0.06038-0.0015-0.11833 0.01953-0.17383l-0.21094-0.08008-0.79492 2.1035 0.21094 0.08008c0.08992-0.11825 0.16912-0.20426 0.23437-0.25976 0.06653-0.05537 0.149-0.08625 0.25-0.09375l5.3945-0.38086c0.21311-0.0185 0.39103-0.03437 0.53516-0.04687 0.14414-0.01362 0.23602-0.01292 0.27539 0.002 0.07875 0.0295 0.11805 0.08422 0.12305 0.16797l0.21094 0.08008 0.67969-1.7988-0.21094-0.08008c-0.03575 0.0235-0.06886 0.03953-0.09961 0.05078-0.03087 0.0097-0.06609 0.0089-0.10547-0.0059-0.03943-0.01475-0.09745-0.06386-0.17383-0.14648-0.07637-0.0825-0.17802-0.18898-0.30859-0.31836l-3.788-3.808c-0.0579-0.058-0.13055-0.14444-0.2168-0.25781-0.0875-0.11338-0.10209-0.24792-0.04297-0.4043l-0.21094-0.08008zm42.938 0.01758-6.0723 0.02734 6.0723 2.0605v-2.0879zm9.0918 0.05078v2.0391l5.9199-2.0117-5.9199-0.02734zm-24.512 0.44531c-0.02218 0.60238 0.26453 1.0318 0.51953 1.3164 0.59008 0.67262 1.7005 0.78716 2.4199 1.0508 0.46319 0.16138 0.89592 0.3352 1.3086 0.4707 1.5472 0.51862 4.6217 1.5312 4.7461 1.5312 0.12564 0 0.15234-0.0918 0.15234-0.0918-0.35724-0.34738-0.56788-0.71294-0.64062-0.97656-0.0579-0.18225-0.01398-0.49492-0.24805-0.57617-2.0634-0.70962-4.1329-1.3489-6.1914-2.0449-0.60239-0.19962-1.7077-0.68719-1.832-0.67969h-0.23437zm75.529 0.0625c-1.0915 0.3105-2.2245 0.66478-3.4219 1.0195v0.64648c0.3745 0.94488 0.69819 1.9148 1.0234 2.877 1.158-0.44725 2.2619-0.8952 3.3027-1.3301v-0.64453c-0.27462-0.86475-0.57542-1.7171-0.9043-2.5684zm-111.85 0.0293c-0.14906 0.4065-0.29677 0.81561-0.44336 1.2246-0.039375 0.11575-0.078516 0.2312-0.11914 0.3457-0.092375 0.26362-0.18598 0.52739-0.27344 0.79102-0.023375 0.069-0.046234 0.13678-0.068359 0.20703-0.03075 0.19088 0 0.45186 0 0.64648 1.0459 0.43362 2.1634 0.88366 3.3164 1.332 0.12566-0.39175 0.25902-0.78039 0.39453-1.166 0.048-0.13675 0.093303-0.2727 0.14258-0.4082 0.15768-0.43725 0.32096-0.87356 0.49219-1.3047v-0.64648c-1.1987-0.368-2.3525-0.712-3.4427-1.023zm76.079 0.154c-1.2442 0.45325-2.4557 0.84245-3.6543 1.2207-1.5115 0.47062-3.0696 0.99216-4.5859 1.4727-0.1245 0.308-0.19558 0.6653-0.39258 0.95117-0.15163 0.218-0.38755 0.35703-0.48242 0.61328 2.4724-0.74038 4.9055-1.5022 7.3027-2.2695 0.11825-0.037 0.18406-0.12138 0.30469-0.17188 0.23662-0.0985 0.51278-0.21811 0.73828-0.33398 0.3325-0.16875 0.85156-0.97353 0.85156-1.332 0-0.12562-0.08203-0.15039-0.08203-0.15039zm-8.6562 0.70312c-2.279 0.882-5.9551 0.90931-5.9551 4.0234 0 0.12575 0.10156 0.55169 0.10156 0.67969 0 0.37212-1.4084 0.73023-1.6191 0.74023h-0.98438c0.13925 0.65662 0.29525 1.2695 0.5625 1.8398 2.1128 0.2575 4.922-1.9034 5.2227-4.5605 0.0135-0.12938 0.13719-0.15859 0.25781-0.19922 1.1062-0.38188 2.4941-0.64861 2.4941-2.1465 0-0.12575-0.0025-0.25133-0.08008-0.37695zm-22.271 0.0078v0.65039c0.05174 0.4595 0.59901 1.1958 1.0684 1.3301 0.28825 0.085 0.64497 0.24264 0.94922 0.30664 0.14162 0.02962 0.37908-0.02163 0.39258 0.17187 0.106 1.6926 1.928 4.2355 3.7832 4.5879 0.21062 0.037 0.5443 0.1893 0.66992 0.18555h0.83008l0.51562-1.8457h-0.94336c-0.07388-0.0097-1.6133-0.35564-1.6133-0.66602 0-0.12575 0.09961-0.67894 0.09961-0.80469 0-2.8801-3.1083-2.9256-5.752-3.916zm7.2754 0.20703v0.67578h7.6699v-0.67578h-7.6699zm0.14648 0.95898 1.2988 4.0059-1.4512 5.125v0.24609h7.5293v-0.29492l-1.3477-4.6719 1.1992-4.168v-0.24219h-7.2285zm-14.695 0.14258v0.30078c-0.0074 0.28825 0.70294 1.2611 0.93945 1.377 1.2134 0.58388 2.5613 0.85614 3.7168 1.2441 0.95718 0.31662 2.8121 0.99414 2.9414 0.99414l0.24024-0.02734c-0.35478-0.45338-0.80156-1.1009-0.88281-1.6035-1.4314-0.57525-2.9863-1.0411-4.334-1.4551-0.80935-0.24512-2.3087-0.84008-2.4355-0.83008h-0.18555zm-10.551 0.24219c-0.12442 0-0.36387 0.10508-0.56836 0.06445-0.2316-0.0505-0.61328 1.9623-0.61328 2.3516 0 0.12575 0.01172 0.10938 0.01172 0.10938 0.04175 0.1085 0.02936 0.71567 0.05273 0.81055 0.0135 0.037 0.03031 0.16991-0.05469 0.36328 0.49645-0.02712 0.84383-0.07617 0.9707-0.07617 0.12688 0 0.14111 0.06611 0.16211 0.16211 0.24145 1.179 0.82756 2.4259 1.2402 3.6035h0.37891c0.12565 0.0061 1.0291-0.19622 1.5625-0.37109-0.541-1.34-0.982-2.554-1.436-3.843-0.283 0.093-0.424 0.119-0.424-0.133 0-0.1625 0.05553-0.67969 0.52734-0.67969 0.12811 0 0.47612 0.16997 0.68555 0.18359 0.54449 0.03075 1.0935 0.11764 1.5566 0.18164-0.2858 0.19962-0.58517 0.40456-0.85742 0.64844l1.0605 0.53906v-1.1562h0.39453c0.37941 0.0061 0.6794 0.59095 0.8457 0.7832 0.85492 0.22662 1.7162 0.43097 2.5625 0.58984 0.03575 0.0345 0.06781 0.04459 0.07031 0.07422-0.0863 0.085-0.15919 0.14609-0.21094 0.15234-1.1518 0.18962-2.3652 0.32138-3.5293 0.45312-0.0542 0.01975-0.18555 0.11778-0.18555 0.17578 0.15275 0.56175 0.40788 1.1145 0.63086 1.6973 1.594-0.34862 3.1666-0.66533 4.6621-1.0176 0.20942-0.04687 0.42523-0.18492 0.62109-0.31055 0.27718-0.17612 0.8793-1.4792 0.87305-1.6406v-0.17578c-1.39-0.419-2.797-0.686-4.051-1.242-0.319-0.138-0.601-0.99-1.015-1.078-0.895-0.2-1.814-0.296-2.67-0.404-0.298-0.035-0.697 0.073-0.932-0.119-0.553-0.461-1.669-0.698-2.322-0.698zm47.115 0.06055c-2.2224 0.69362-4.4376 1.3999-6.6562 2.0762-0.07512 0.21062-0.12923 0.41572-0.19336 0.55859-0.11825 0.28462-0.70727 0.73442-0.83789 0.99805l0.24219 0.03125c0.12812 0 1.6333-0.52239 2.3848-0.74414 1.0964-0.32888 2.2449-0.69405 3.3672-0.93555 0.34862-0.07637 1.9034-1.0208 1.8984-1.75v-0.23438h-0.20508zm10.727 0.24024c-0.12688 0-0.99258-0.0087-1.4238 0.13672-0.32762 0.10475-0.5657 0.55747-0.9082 0.65234-0.57412 0.159-1.1952 0.15475-1.7988 0.21875-0.75025 0.08138-1.0775 0.10156-1.2031 0.10156-0.12312 0-0.45223 0.01619-0.63086 0.11719-0.17238 0.10225-0.33738 0.24292-0.45312 0.4043-0.13188 0.18238-0.16638 0.44983-0.34375 0.51758-1.2836 0.531-2.6628 0.82511-3.998 1.2402v0.3418c-0.0075 0.26362 0.58761 1.4635 0.83398 1.5312 1.684 0.4805 3.4278 0.77567 5.1191 1.123 0.13675-0.361 0.58008-1.1688 0.58008-1.5039 0-0.12562-0.014-0.13548-0.07813-0.19336-1.2245-0.159-2.4303-0.35859-3.6289-0.57422-0.04063-0.02712-0.11891-0.03744-0.12891-0.05469 0.87588-0.186 1.7852-0.38681 2.6562-0.61719 0.3905-0.61838 0.61314-0.82227 1.1035-0.82227 0.12562 0 0.04308-0.01833 0.08008 0.01367-0.0037 0.94125 0.0073 1.0766 0.08984 1.1406 0.37688-0.20575 0.83489-0.35412 1.0098-0.71875-0.33012-0.17988-0.62064-0.37611-0.80664-0.47461 0.56912-0.06412 2.242-0.26367 2.3652-0.26367 0.33875 0 0.30469 0.28841 0.30469 0.55078 0 0.41025 0.03995 0.21947-0.43555 0.27734-0.41638 1.1666-0.86873 2.3748-1.3184 3.6719l1.752 0.37891c0.05425 0 0.19527-0.02247 0.22852-0.07422 0.68375-1.132 0.88039-2.3184 1.2598-3.5059 0.37075 0.06162 0.67906 0.10742 0.80469 0.10742 0.12575 0 0.16103-0.01248 0.22266-0.08398-0.04675-0.4225 0.05412-0.53226-0.04687-1.4316-0.10725-0.94975 0.10122-2.207-1.207-2.207zm-40.043 0.10938v0.35156c-0.01355 0.1835 0.65016 1.0549 0.66016 1.0684 0.38439 0.345 0.86942 0.40134 1.1699 0.54297 0.15038 0.069 0.42224 0.19336 0.55274 0.19336 0.12325 0 0.10592-0.01584 0.16992-0.08984-0.1515-0.48038-0.25144-0.93503-0.41406-1.3945-0.72438-0.223-1.4291-0.4255-2.1387-0.67188zm22.258 0.15234c-0.7995 0.24638-1.5527 0.44927-2.3164 0.75977-0.12938 0.41025-0.20375 0.85355-0.375 1.2637l0.20117 0.03125c0.80812-0.18488 2.5567-0.80669 2.4902-2.0547zm-11.891 0.81445h1.5371c-0.19338 0.79713-0.34297 1.4545-0.51172 2.084h-0.51758l-0.50781-2.084zm57.791 0.41211c-1.1222 0.23525-2.288 0.48405-3.5039 0.76367v0.64648c0.29813 0.97075 0.5626 1.9463 0.79297 2.9355 1.2022-0.372 2.3374-0.72695 3.4141-1.0645v-0.64648c-0.218-0.882-0.44937-1.765-0.70312-2.6348zm-114.72 0.0625c-0.24884 0.88325-0.48488 1.7652-0.69922 2.6484-0.023375 0.19225 0 0.45186 0 0.64648 1.073 0.34125 2.2263 0.67736 3.4102 1.0371 0.23159-0.99288 0.49783-1.9694 0.79102-2.9414v-0.64648c-1.2096-0.262-2.3747-0.51-3.4969-0.745zm41.127 0.26953v0.19922c-0.01109 0.271 0.72512 1.2469 0.88281 1.3281 1.142 0.62212 2.4387 0.80312 3.5684 1.1406 0.70588 0.21688 2.058 0.69727 2.1836 0.69727l0.29492-0.03125c-0.31175-0.3585-0.68755-0.69022-0.95117-1.0586-0.13184-0.17862-0.15898-0.39175-0.24024-0.54688-1.8798-0.51375-3.872-1.136-5.7383-1.7285zm5.543 0.002c0.06406 0.6565 0.85942 1.7358 1.5801 1.9316 0.29438 0.08125 0.65738 0.22008 0.95312 0.29883 0.39788 0.11712 1.1022 0.42773 1.2266 0.42773l0.245-0.03c-0.531-0.758-1.086-1.153-1.336-1.808-0.856-0.275-1.714-0.526-2.664-0.821zm22.068 0.26953c0-0.13175-1.7565 0.47247-2.8418 0.69922-0.36962 0.55438-0.81589 1.1016-1.2754 1.6621 0.61225-0.12438 1.1788-0.42784 1.7578-0.46484 0.45338-0.03075 2.3594-0.93561 2.3594-1.8965zm5.3574 0.02539c-1.8466 0.55188-3.6546 1.0565-5.4863 1.5332-0.16388 0.30425-0.29252 0.61353-0.47852 0.84766-0.20938 0.26362-0.5367 0.5038-0.68945 0.76367 1.7148-0.43238 3.3886-0.85548 4.9863-1.3027 0.15525-0.0455 0.31806-0.14123 0.46094-0.20898 0.25125-0.12562 0.54605-0.31764 0.74805-0.50977 0.22425-0.21312 0.57111-0.90255 0.45898-1.123zm33.02 0.51953-1.707 0.42774 0.0547 0.21875c0.11325-0.02837 0.19981-0.0142 0.25781 0.04492 0.0579 0.05925 0.096 0.12659 0.11328 0.19922l0.50391 2.0117-4.8496 1.2148c-0.0739 0.01837-0.13364 0.0072-0.18164-0.02734-0.0469-0.03575-0.0802-0.08205-0.0937-0.13867l-0.21875 0.05664 0.46875 1.875 0.2207-0.05469c-0.0444-0.17862 0.007-0.28652 0.15235-0.32226l4.8516-1.2148 0.5039 2.0117c0.0184 0.07275 0.0157 0.14769-0.008 0.22656-0.0246 0.08-0.0938 0.13498-0.20703 0.16211l0.0547 0.2207 1.707-0.42774-0.0547-0.21875c-0.11337 0.02825-0.19994 0.011-0.25781-0.04687-0.0591-0.05913-0.0967-0.12464-0.11524-0.19726l-1.3555-5.4121c-0.0171-0.07388-0.0136-0.14839 0.01-0.22852 0.0235-0.07887 0.0906-0.13374 0.20508-0.16211l-0.0547-0.21875zm-59.691 1.0996c0.10595 0.88338 1.0383 1.6484 1.9941 1.6484 0.33262 0 1.3937-0.38236 1.5059-0.56836l-3.5-1.0801zm9.9648 0h0.51562c0.117 0.43 0.21734 0.8323 0.30859 1.3262h-1.1387c0.09237-0.44588 0.19495-0.89617 0.31445-1.3262zm10.387 0.08984-3.3594 0.99414c0.46812 0.46938 1.1419 0.61328 1.6309 0.61328 0.8365 0 1.5635-0.40566 1.9824-1.582l-0.25391-0.02539zm-16.459 1.0605c-0.93625 0.8155-1.9113 0.81514-2.8574 0.71289l-0.19336 0.11328c0.0074 0.52975 0.93428 1.2812 1.4258 1.2812 0.48912 0 1.2087-0.47719 1.3984-1.1953 0.05175-0.19962 0.24019-0.5475 0.22656-0.67188v-0.24024zm12.834 0.14648c-0.07762 0.06412-0.08984 0.02672-0.08984 0.15234 0 0.12437 0.21988 0.94653 0.42188 1.3789 0.09737 0.21312 0.37264 0.45705 0.57227 0.51367 0.14538 0.0345 0.36391 0.06641 0.48828 0.06641 0.70462 0 1.4544-0.86353 1.5703-1.5977-0.329 0.10462-0.78388 0.24023-1.2188 0.24023-0.53962 0-1.1996-0.49028-1.7441-0.75391zm-0.42188 0.05273c-0.38438 0.0985-0.78875 0.30003-1.1719 0.42578 0.39788 1.217 0.32908 2.4395 1.7051 2.4395 0.28462 0 1.133-0.38576 1.0898-0.79102-0.13425-0.01362-0.23488 0.08594-0.35938 0.08594-0.9005 0-1.0814-1.8757-1.2637-2.1602zm-12.121 0.0039c-0.29562 0.781-0.6718 2.1431-1.7324 1.9805 0.43362 0.48788 0.80706 0.83008 1.3047 0.83008 0.12325 0 0.33298-0.0553 0.47461-0.12305 0.15162-0.07762 0.39373-0.31056 0.45898-0.46094 0.23162-0.54688 0.62695-1.5535 0.62695-1.6816 0-0.24388-0.97756-0.53742-1.1328-0.54492zm5.4219 0.1582h1.2285c0.01362 0.085 0.06483 0.13584 0.04883 0.32422h-1.3281c-0.01125-0.18838 0.03728-0.23922 0.05078-0.32422zm-3.9512 0.28711c-0.563 0.7305-0.39347 2.4797-1.7461 2.3984 0.41025 0.3585 0.889 0.51953 1.2031 0.51953 0.23038 0 0.60886-0.14174 0.72461-0.28711 0.11462-0.13175 0.26395-0.29425 0.31445-0.45312 0.1935-0.59262 0.57422-1.7476 0.57422-1.877 0-0.12438-0.01217-0.13452-0.07617-0.19727h-0.66992c-0.12938-0.0037-0.19122-0.04939-0.32422-0.10352zm9.1973 0.05859c-0.43362 0.04062-0.83927 0.09392-1.2754 0.1543v0.19922c0.36088 0.80575 0.37075 2.6602 1.8281 2.6602 0.38188 0 0.7985-0.23575 1.0781-0.625l-0.24219-0.0332c-1.1555 0-0.8208-1.1581-1.3887-2.3555zm-5.3965 0.15625h1.4844c0.01362 0.08613 0.06162 0.13822 0.04687 0.32422h-1.582c-0.01362-0.186 0.03591-0.23809 0.05078-0.32422zm-57.951 0.05664c-0.19218 0.87962-0.36113 1.774-0.51758 2.6758-0.016 0.19225 0 0.45311 0 0.64648 1.105 0.26238 2.2744 0.54161 3.4902 0.80273 0.15521-1.0065 0.34251-1.9951 0.56055-2.9844v-0.64648c-1.2159-0.186-2.4159-0.35614-3.5332-0.49414zm116.88 0c-1.1186 0.138-2.3056 0.30814-3.5352 0.49414v0.64648c0.21812 0.98925 0.4053 1.9779 0.56055 2.9844 1.2158-0.26238 2.3815-0.54036 3.4902-0.80273v-0.64648c-0.1565-0.89925-0.32475-1.7974-0.51563-2.6758zm-78.932 0.187-6.318 1.352c-0.07514-0.0075-0.70117 0.02366-0.70117 0.30078 0 0.12562 0.25355 1.2192 0.37305 1.834 0.04065 0.05787 0.09522 0.16564 0.16797 0.22852l6.8457-1.5781c0.01237-0.38188-0.03858-0.57136-0.01758-0.74023 0.05667 0.0505 0.20196 0.10547 0.33008 0.10547 0.20326 0 0.50391-0.27366 0.50391-0.55078 0-0.20325-0.16096-0.50586-0.5293-0.50586-0.12811 0-0.35647 0.10838-0.46484 0.20312-0.07019-0.17612-0.11433-0.41444-0.18945-0.64844zm41.814 0.04297c-0.39175 0.07388-0.23548 0.62358-0.42773 0.9082-0.12438-0.18362-0.27819-0.30469-0.47656-0.30469-0.23025 0-0.53125 0.29106-0.53125 0.55469 0 0.26362 0.28981 0.55274 0.55469 0.55274 0.12925 0 0.23755-0.06664 0.32617-0.15039v0.06055c-0.02088 0.12562-0.07422 0.31578-0.07422 0.44141 0 0.12562 0.04887 0.09789 0.0625 0.18164l6.6387 1.4785c0.37688-0.24025 0.33195-1.0032 0.45508-1.3926 0.0715-0.25375 0.19141-0.61852 0.19141-0.74414 0-0.12812-0.0525-0.07695-0.0625-0.1582l-6.6562-1.4277zm-21.948 0.217h1.7832c0.016 0.08375 0.06608 0.18481 0.04883 0.32031h-1.8828c-0.0135-0.08375 0.03603-0.18481 0.05078-0.32031zm-17.627 0.33398c-0.33138 0-0.50195 0.28494-0.50195 0.55469 0 0.13925 0.21613 0.55469 0.47852 0.55469 0.1195 0 0.57812-0.19625 0.57812-0.57812 0-0.24012-0.19868-0.53125-0.55469-0.53125zm-32.172 0.02344-0.44141 2.0391 0.22266 0.04883c0.04557-0.213 0.14246-0.30544 0.28906-0.27344l5.5781 1.2012c0.14775 0.03213 0.19797 0.15406 0.15234 0.36719l0.2207 0.04687 0.43945-2.0391-0.22266-0.04883c-0.04557 0.21438-0.14124 0.30544-0.28906 0.27344l-5.5762-1.2012c-0.14775-0.03075-0.19797-0.15406-0.15234-0.36719l-0.2207-0.04687zm69.182 0.12891c-0.26362 0-0.58008 0.18256-0.58008 0.55469 0 0.2205 0.28494 0.55273 0.55469 0.55273 0.20575 0 0.50586-0.27583 0.50586-0.58008 0-0.09737-0.09122-0.52734-0.48047-0.52734zm-19.529 0.01172h2.0801v0.32617h-2.0801v-0.32617zm-16.07 0.54297c-0.30428 0-0.50391 0.30825-0.50391 0.57812 0 0.23775 0.17007 0.5293 0.50391 0.5293 0.13304 0 0.55469-0.16336 0.55469-0.50586 0-0.19962-0.25411-0.60156-0.55469-0.60156zm26.566 0.09961c-1.6089 0-2.7695 1.4079-2.7695 2.8184 0 0.967 0.62697 2.2052 1.918 2.6523h-16.713c0.98062-0.64425 1.5137-1.5603 1.5137-2.5273 0-1.3686-1.0535-2.793-2.666-2.793-0.12562 0-0.54236 0.000609-0.72461 0.06836-2.38 0.93012-6.9244 3.0527-7.0488 3.0527-0.12565 0-0.52538-0.38783-0.82227-0.58008-0.77486-0.50375-1.7322-0.63367-2.5059-1.5293-0.73051 0.09737-1.4938 0.24939-2.2305 0.47852 0.3363 0.66762 0.80635 1.302 1.4297 1.7012 0.47304 0.31162 0.99303 0.63123 1.4648 0.86523 2.4465 1.2159 2.9414 2.7933 2.9414 4.5488 0 0.781-0.09873 1.2354-0.70117 2.1348l0.85156 0.08008 2.3672-0.20312c1.1814 0.016 0.1432-0.95703 1.2051-0.95703 0.2895 0 0.50391 0.28494 0.50391 0.55469 0 0.76138-1.0936 0.77942-1.377 0.87305-0.7034 0.23775-1.4156 0.42544-2.1055 0.60156-0.6566 0.16875-1.31 0.44045-1.9297 0.5957-0.43239-0.882-0.88504-1.7889-1.3926-2.7227-0.03937 0.09862 0.01172 0.15039 0.01172 0.69726-0.10225 0.44962-0.19796 0.90345-0.33594 1.2988-0.15275 0.41888-0.40529 0.92286-0.75391 1.2715-1.6322 1.5756-4.6797 2.1138-4.9199 4.4766-0.03075 0.345-0.08187 0.70334-0.125 1.0273 0.05663 0.069 0.04351 0.07814-0.0059 0.47852-0.11212 1.7468-0.24036 3.5678-1.168 5.2148-0.34616 0.61475-0.80153 1.2319-1.2832 1.7344-0.66768 0.69612-2.0254 1.7662-2.0254 1.8906 0 0.17488 0.98149 3.5989 1.2734 4.2715 0.064 0.149 0.26061 0.32722 0.35547 0.40234 0.37819 0.29687 0.83594 0.22876 0.83594 0.75976 0 0.12562-0.10259 0.2783-0.07422 0.41992 3.9248-2.3159 7.7194-4.6056 11.523-6.9141 0.16506-0.09862 0.31966-0.20647 0.36524-0.40234-0.19218-0.02088-0.33514-0.0084-0.42383-0.03906-1.769-0.669-3.5236-1.3897-5.2285-2.0586-0.04675-0.03087-0.08742-0.07373-0.12305-0.09961 0.14906-0.43612 0.55273-1.4618 0.55273-2.0273 0-1.1555-0.94579-2.6395-2.5879-3.1914-0.15276-0.0505-0.02734-0.35609-0.02734-0.48047 0-0.13062 0.0415-0.57812 0.0625-0.82812 0-0.074 0.76508-1.1094 1.1211-1.1094 0.45334 0 1.7277 1.5648 1.873 1.832 0.25378 0.47925 0.45941 0.98776 0.54688 1.4473 0.0555 0.2945 0.06836 0.77269 0.06836 0.89844 0 0.861-0.14029 1.8609-0.5 2.834 1.1321 0.6295 2.214 1.2481 3.2969 1.7188 0.18355 0.07762 0.50767-0.02734 0.63086-0.02734h0.74414c0.21189 0 0.4082 0.30797 0.4082 0.48047 0 0.12312-0.13774 0.44075-0.29297 0.65625 0.86848-0.38675 2.1536-1.2891 2.2793-1.2891 0.18232 0 0.22656 0.29838 0.22656 0.53125 0 0.15275-0.0088 0.37762-0.23047 0.51562-3.6599 2.2469-7.347 4.4914-11.002 6.6719-0.46689 0.27838-1.0289 0.59045-1.5254 0.9082-0.35231 0.22675-1.3567 0.98633-1.8359 0.98633-0.12566 0-0.39718-0.08427-0.53516-0.13477-0.10225-0.037-0.22026-0.18253-0.26953-0.30078 0.18232-0.12812 0.44584-0.28738 0.60352-0.53125-0.32768-0.18475-0.72771-0.3718-0.89648-0.66992-0.78964-1.3625-1.3573-2.8266-1.9941-4.1719-0.16261-0.35838-0.5293-0.95961-0.5293-1.084 0-0.12562 0.12723-0.16639 0.17773-0.19727 1.2442-0.8105 2.541-2.611 2.541-3.7812 0-0.65412 0.18133-0.87158-0.05273-2.6738-0.14414-1.1222-0.44227-2.218-0.77734-3.334-0.03325-0.0555-0.13477-0.07813-0.13477-0.07813-2.0967 2.603-1.9677 6.2891-5.502 6.2891-1.243 0-2.9961-0.96316-2.9961-2.6914 0-0.97075 0.7616-2.1875 2.0391-2.1875 0.70341 0 1.8828 0.39622 1.8828 1.6836 0 0.12562 0.01659 0.25078-0.03516 0.37891-0.16261-0.99162-0.89558-1.6602-1.748-1.6602-0.89558 0-1.7363 0.92383-1.7363 1.8613 0 0.71575 0.75114 1.6627 1.5938 1.9707 0.31166 0.10838 0.79746 0.29102 0.92188 0.29102 0.765 0 2.0495-0.44131 2.541-1.1484 1.6667-2.401 1.5896-5.0643 3.5508-7.4727 1.5854-1.9501 3.496-3.9775 4.4531-5.8438 0.63196-1.2442 0.92773-2.3515 0.92773-3.5723 0-1.1839-0.25561-2.347-0.98242-3.5938-0.68863 0.14788-1.3429 0.24758-1.9785 0.42383 0.29812 1.2504 0.75 2.146 0.75 3.0957 0 0.62212-0.16694 1.7409-0.46875 2.2891-1.8786 3.4086-5.7017 6.878-6.293 10.279-0.037 0.23275-0.17284 0.48252-0.28125 0.66602-0.58145-1.302-1.8758-1.9648-2.998-1.9648-2.5783 0-4.4004 2.2973-4.4004 4.5801 0 2.6806 2.5193 4.7793 5.5312 4.7793 1.0077 0 0.44428 0.09828 1.877-0.32422 0.1195-0.03087 0.14913-0.15212 0.20703-0.17188 1.4672-0.63325 2.1242-2.3654 2.4062-3.4062 0.032-0.04438 0.03902-0.12072 0.07227-0.13672v0.21289c-0.35971 1.6716-1.6261 3.7504-3.5762 4.6016-0.05787 0.04075-0.07617 0.15625-0.07617 0.15625l2.8691 6.002c-0.28456 0.17125-0.63596 0.42545-0.9082 0.6582l4.1934 5.0391 16.959-10.271v2.9961h-4.7949c1.817 2.3246 3.5285 4.5894 5.2051 6.7168h20.525c1.8256-2.1804 3.7433-4.4909 5.4199-6.5371l11.473 7.0957 4.0156-4.8906c-0.324-0.23412-0.61869-0.37841-0.80469-0.55078l2.969-5.895c0-0.037-0.07255-0.17867-0.12305-0.2168-1.1124-0.62462-2.0785-1.2264-2.623-2.2969-0.058-0.1195-0.27344-0.31578-0.27344-0.44141 0-0.1245-0.45313-1.6361-0.45313-1.7617 0-0.12562-0.01758-0.11339-0.01758-0.15039 0.16138 0.99662 0.66756 2.18 1.7109 2.9414 0.43238 0.31288 0.87844 0.64555 1.3047 0.81055 0.62088 0.24638 1.3505 0.42383 1.959 0.42383 2.736 0 5.0527-2.3643 5.0527-5.1816 0-1.291-0.94327-3.2282-2.541-3.9082-0.5235-0.21925-1.6316-0.41992-1.7598-0.41992-0.8795 0-2.6436 0.71069-3.002 1.7109-0.0062-0.03575-0.0069-0.0842-0.03516-0.11133-0.26612-1.5016-0.95883-3.104-1.8457-4.4824-0.86488-1.3404-2.1037-2.8845-2.918-4.1387-0.41512-0.64175-1.2417-1.7367-1.6211-2.6582-0.19962-0.47425-0.26367-1.3391-0.26367-1.4648 0-0.89925 0.52784-2.6917 0.90234-3.5195l-1.9277-0.42969c-0.03075 0-0.17269 0.02177-0.21094 0.07227-0.64912 1.0508-1.0762 2.7285-1.0762 3.8496 0 0.85 0.189 1.9516 0.67188 2.793 0.29075 0.49775 0.68164 1.0423 0.97852 1.5117 0.7255 1.1839 1.7147 2.5898 2.6484 3.8574 0.92388 1.2578 2.0168 2.6625 2.5293 3.9844 0.75138 1.9451 0.9145 5.5914 3.9844 5.8477 0.09238 0.0088 0.1552 0.07227 0.2832 0.07227 0.84025 0 2.5898-1.1563 2.5898-2.3672 0-0.93625-0.81989-1.7617-1.7598-1.7617-0.79462 0-1.4149 0.32144-1.7266 1.4609-0.0505-0.0875-0.03711-0.15297-0.03711-0.27734 0-0.83525 0.71855-1.6836 1.6855-1.6836 1.0101 0 2.1894 0.8115 2.1894 2.1875 0 1.5152-1.4717 2.8965-2.918 2.8965-2.4109 0-3.5688-2.024-4.25-4.5938-0.1515-0.59125-0.53147-1.1308-0.80859-1.6211-0.11212-0.20075-0.28991-0.36292-0.48828-0.5293-0.52475 1.2886-1.0449 3.3216-1.0449 4.7285 0 1.8552 0.44212 3.884 2.7188 5.4473-0.50025 0.97325-1.0453 2.0349-1.543 3.0352-0.202 0.40162-0.40944 0.80747-0.60156 1.1523-0.19837 0.35238-0.71464 1.6387-1.4316 1.6387-0.12438 0-0.17847 0.0028-0.33984-0.0293 0.31288 0.271 0.61116 0.46769 0.84766 0.63281-0.03938 0.01475-0.04102 0.06445-0.04102 0.06445-0.14162 0.09113-0.31312 0.18555-0.4375 0.18555-0.12562 0-0.27855 0.01305-0.4043-0.06445-4.0762-2.3776-7.2593-4.5144-11.238-7.0078-0.79325-0.49638-1.5718-0.97828-2.2949-1.4414-0.13175-0.08875-0.17774-0.34492-0.17774-0.4668 0-0.0345-0.0057-0.48047 0.22852-0.48047 0.12438 0 0.94828 0.59614 1.457 0.90039-0.0075-0.351 0.02933-0.77338 0.43945-1h0.58594c0.12325 0.0037 0.14125 0.09961 0.26562 0.09961h0.53711c0.12688 0 0.49314-0.14866 0.68164-0.22266 0.40038-0.16262 0.81961-0.42809 1.209-0.60547 0.3215-0.14412 1.4902-0.75094 1.4902-0.88281 0-0.12438-0.23677-0.65434-0.29102-0.96484-0.09113-0.441-0.21484-1.1782-0.21484-1.3027v-0.89648c0-0.94238 0.80477-2.542 1.8223-3.2012 0.2625-0.17612 0.74297-0.47852 0.87109-0.47852 0.45825 0 0.86133 1.3051 0.86133 1.3125 0.01125 0.202 0.01758 0.47789 0.01758 0.60352 0 0.20575-0.03945 0.65984-0.12695 0.79297-1.7172 0.35725-2.3379 1.65-2.3379 2.8535 0 0.36225 0.4043 1.8658 0.4043 1.8867 0 0.15525-2.0324 0.91469-2.3848 1.0391-1.1616 0.42988-2.4319 1.206-3.5996 1.0508 0.20938 0.2575 0.5275 0.47426 0.73438 0.60352 3.4124 2.1226 6.866 4.2515 10.203 6.3691 0.22662 0.14538 0.441 0.32972 0.64062 0.49609 0.09363-0.223 0.0287-0.6533 0.36133-0.79492 0.19225-0.08375 0.39803-0.18067 0.55078-0.23242 0.41512-0.13062 0.68925-0.6798 0.76562-0.91992 0.41512-1.2381 0.72755-2.5659 1.0762-3.8594-0.32525-0.17375-0.5708-0.38638-0.8418-0.5625-0.60862-0.4065-1.5521-1.2722-1.918-1.8574-0.35838-0.57525-0.68503-1.4168-0.84766-2.002-0.202-0.70338-0.51758-1.9798-0.51758-2.1055v-1.0078c-0.2045-0.45575-0.18838-1.1211-0.25-1.5547 0-0.80188-0.04883-0.825-0.04883-0.95312 0-1.0175-0.78269-2.5416-1.7891-3.0996-1.482-0.8315-4-2.2647-4-4.0977 0-0.17488 0.21714-0.45536-0.05273-0.80274l-1.2246 2.623c-0.67375-0.15525-1.4357-0.3692-2.123-0.64258-0.20938-0.085-3.2383-0.40336-3.2383-1.5059 0-0.425 0.17114-0.57422 0.60352-0.57422 1.0829 0-0.12055 1.0547 1.4082 1.0547l2.8164 0.2168c-0.32762-0.2575-0.6543-1.7223-0.6543-2.2285 0-0.38312 0.24441-1.1933 0.28516-1.4199 0.5715-3.2189 4.459-2.8971 5.9004-5.6973-0.73675-0.17862-2.0599-0.53125-2.1855-0.53125-0.1245 0-0.09766 0.01758-0.09766 0.01758-0.76125 0.77725-1.7405 1.2658-2.4648 1.6094-0.31288 0.15275-0.78258 0.53711-0.9082 0.53711-0.122 0-4.5589-2.1232-6.8477-3.1543-0.27725-0.12562-0.79961-0.16797-0.92774-0.16797zm7.4238 0c-0.266 0-0.57812 0.30664-0.57812 0.60352 0 0.1995 0.30197 0.50391 0.52734 0.50391 0.23775 0 0.5293-0.20584 0.5293-0.52734 0-0.16638-0.14089-0.58008-0.47852-0.58008zm-32.783 1.1582c-0.26362 0-0.55469 0.28709-0.55469 0.52734 0 0.17238 0.20653 0.58008 0.5293 0.58008 0.24021 0 0.52734-0.28173 0.52734-0.55273s-0.21739-0.55469-0.50195-0.55469zm31.7 0.101c-0.33262 0-0.50195 0.28911-0.50195 0.55273 0 0.138 0.08106 0.55469 0.47656 0.55469 0.24012 0 0.52734-0.14569 0.52734-0.55469 0-0.26362-0.16695-0.55273-0.50195-0.55273zm-19.658 0.26562v0.67969h7.668v-0.67969h-7.668zm13.293 0.73828c0.63062 0 5.2101 2.3704 6.1094 2.8027-0.20325 0.4435-0.34958 0.83911-0.5332 1.2715-1.403-0.962-2.9056-2.0251-4.3223-3.0117-0.08875-0.06412-0.25047-0.10352-0.37109-0.10352-0.12812 0-0.85792 0.29883-0.98242 0.29883-0.43362 0-0.58008-0.37488-0.58008-0.57812 0-0.425 0.33594-0.67969 0.67969-0.67969zm-18.668 0.05078c0.4015 0 0.52734 0.40925 0.52734 0.57812 0 0.372-0.40152 0.53125-0.60352 0.53125-0.1245 0-0.67899-0.15234-0.80469-0.15234-0.4213 0-3.3343 2.157-4.8926 3.0156-0.23284-0.37575-0.33676-0.73297-0.48828-1.1211 1.8589-1.0015 3.7697-1.884 5.7617-2.7832 0.133-0.058 0.37188-0.06836 0.5-0.06836zm8.5566 0.40234c-0.19713 0-0.67063 0.15876-0.96875 0.0098v0.30469c0.2415 0.46325 0.49755 0.92153 0.76367 1.3945h0.92774c0.12325 0.0025 0.19173-0.0623 0.25586-0.13867-0.25625-0.53475-0.45903-1.0392-0.72266-1.5469-0.0715-0.01962-0.13148-0.02344-0.25586-0.02344zm0.73437 0.01172c0.197 0.659 0.399 1.165 0.617 1.694 0.38188 0.0049 0.91023 0.10742 1.0371 0.10742 0.12325 0 0.14453-0.06641 0.14453-0.06641v-0.19336c-0.19838-0.515-0.35078-1.0153-0.51953-1.4785-0.17738-0.02338-0.3098-0.0725-0.43555-0.0625h-0.84375zm58.898 0.07227c-1.1211 0.06287-2.3201 0.12427-3.5703 0.21289v0.64844c0.14287 1.0065 0.25403 2.0112 0.34765 3.0312 1.2281-0.186 2.411-0.37048 3.5332-0.55273v-0.64648c-0.0936-0.89925-0.18618-1.815-0.31055-2.6934zm-57.158 0.02734v0.29883c0.11575 0.51 0.27098 1.0193 0.49023 1.4727 0.27225 0.03075 0.66136 0.18508 0.78711 0.17383h0.23242c-0.08625-0.60475-0.18909-1.1644-0.35547-1.7285-0.37575-0.07525-0.72805-0.17617-1.1543-0.2168zm-61.275 0.03516c-0.10712 0.89688-0.21289 1.7922-0.29297 2.7051-0.0075 0.19462 0 0.45311 0 0.64648 1.1235 0.16875 2.3057 0.35469 3.5352 0.52344 0.080125-1.02 0.20476-2.0229 0.34766-3.0293v-0.64648c-1.251-0.092-2.4497-0.155-3.5892-0.199zm57.33 0.0059c-0.43112 0.101-0.83575 0.15258-1.2188 0.2832 0.23775 0.33875 0.76839 1.4785 1.1035 1.4785 0.17488 0 0.86953-0.15762 1.0039-0.29688-0.30925-0.48662-0.56217-0.99172-0.88867-1.4648zm5.4746 0.25781v0.35156c-0.0086 0.12812 0.19844 0.96264 0.32031 1.416 0.15162 0.08013 0.3282 0.13867 0.45508 0.13867 0.29938 0 0.7793-0.37878 0.7793-0.83203 0-0.292-0.10359-0.61092-0.48047-0.81055-0.28087-0.1515-0.75859-0.27117-0.88672-0.26367h-0.1875zm-7.0781 0.14844c-0.57162 0.0098-0.98047 0.55156-0.98047 0.97656 0 0.17238 0.21527 0.67969 0.46289 0.67969h0.74023c0.12562 0 0.53064-0.15524 0.75977-0.28711-0.31038-0.49388-0.66467-0.94914-0.98242-1.3691zm51.699 1.0488c-0.57663 0.032-1.0695 0.18548-1.4785 0.45898-0.40887 0.27475-0.74039 0.61639-0.99414 1.0254-0.255 0.409-0.4315 0.85502-0.53125 1.3379-0.0996 0.48412-0.13525 0.95456-0.10937 1.4141 0.0246 0.46075 0.11482 0.92586 0.26757 1.3965 0.15163 0.46925 0.37696 0.89324 0.67383 1.2715 0.29688 0.377 0.66349 0.68033 1.0996 0.9082 0.436 0.22788 0.94374 0.32497 1.5215 0.29297 0.5765-0.03212 1.0695-0.18548 1.4785-0.45898 0.40775-0.27475 0.74039-0.61639 0.99414-1.0254 0.25375-0.40775 0.43671-0.85572 0.54883-1.3398 0.11088-0.48412 0.15478-0.95527 0.12891-1.416-0.0259-0.45938-0.12016-0.92516-0.28516-1.3945-0.16387-0.46925-0.39523-0.89266-0.69336-1.2695-0.29812-0.37825-0.66431-0.68158-1.1016-0.9082-0.43613-0.228-0.94178-0.32497-1.5195-0.29297zm-99.75 0.411l-0.0957 1.8945 0.22656 0.01172c0.0098-0.21688 0.0919-0.32391 0.24219-0.31641l3.9902 0.20117-3.9199 3.4141c-0.17615 0.16012-0.29748 0.23812-0.36524 0.23438-0.0825-0.0038-0.12289-0.04092-0.11914-0.10742l-0.22656-0.01172-0.10742 2.1465 0.22461 0.0098c0.008-0.159 0.087-0.235 0.237-0.227l5.6973 0.28711c0.15035 0.0086 0.22234 0.09112 0.21484 0.25l0.22461 0.01172 0.09375-1.8574-0.22461-0.01172c-0.0099 0.1935-0.09068 0.28609-0.24219 0.27734l-4.166-0.20898 4.1836-3.6289c0.14044-0.12688 0.24095-0.18805 0.29883-0.18555 0.07637 0.0038 0.11047 0.06155 0.10547 0.16992l0.22461 0.0098 0.10352-2.0312-0.22656-0.01172c-0.0074 0.159-0.08677 0.23406-0.23828 0.22656l-5.6973-0.28516c-0.15025-0.0086-0.22164-0.09112-0.21289-0.25l-0.227-0.012zm99.83 0.9707c0.351-0.01975 0.66862 0.04142 0.95312 0.18555 0.28463 0.14412 0.52847 0.33691 0.73047 0.58203 0.20213 0.244 0.36347 0.52306 0.48047 0.83594 0.11825 0.31288 0.18658 0.62744 0.20508 0.94531 0.0173 0.31788-0.015 0.63694-0.0977 0.96094-0.0825 0.32275-0.21114 0.61794-0.38476 0.88281-0.175 0.26612-0.39486 0.48653-0.66211 0.66016-0.26613 0.175-0.57674 0.27252-0.92774 0.29102-0.35112 0.01975-0.66932-0.04337-0.95507-0.1875-0.28463-0.14412-0.52847-0.33691-0.73047-0.58203-0.20325-0.244-0.3621-0.52111-0.48047-0.83398-0.117-0.31175-0.18588-0.62744-0.20313-0.94531-0.0172-0.31788 0.0152-0.63889 0.0977-0.96289 0.0825-0.32275 0.21102-0.61669 0.38477-0.88281 0.17487-0.26488 0.39598-0.48458 0.66211-0.6582 0.26724-0.175 0.5766-0.27139 0.92773-0.29102zm-58.809 0.0918h0.18945v4.0137c-0.34492-1.3095-1.9795-2.2006-3.1387-1.9395l2.95-2.076zm21.41 0.09961c0.988 0.46325 1.8684 1.2395 2.8047 1.9258-0.90175-0.19962-2.3919 0.66041-2.8047 1.7383v-3.6641zm45.182 1.252v0.64648c0.0627 1.0015 0.10742 2.021 0.10742 3.041 1.2468-0.09237 2.4481-0.19852 3.5703-0.29102v-0.64648c-0.0135-0.91412-0.0494-1.8096-0.0937-2.7051-1.1395-0.032-2.3374-0.04492-3.584-0.04492zm-112.12 0.024c-1.2467 0.01725-2.4482 0.03538-3.584 0.0625-0.044375 0.89675-0.079547 1.8099-0.091797 2.7227-0.0025 0.19462 0 0.45381 0 0.64844 1.1382 0.09237 2.3178 0.18464 3.5645 0.25976 0-1.02 0.049703-2.0249 0.11133-3.0449v-0.64844zm47.965 0.54102h8.2363v2.5469c0.01125 0.12562-0.71286 0.79748-1.0996 1.1152 0.34125 0.41525 0.84258 0.91572 1.2676 1.3555 0.37075-0.22425 0.87312-0.88777 1.25-1.3066-0.34-0.372-1.107-1.0771-1.0996-1.2051v-2.5059h8.0371v9.8379c0.0062 0.12938-0.0767 0.92514-0.26758 1.291-0.2095 0.39175-0.69375 0.76248-0.98438 1.084 0.14162 0.16875 0.45312 0.4525 0.45312 0.57812 0 0.12575-0.65762 1.3097-1.0469 1.9355-0.3955-0.31162-0.70067-0.61967-0.91992-0.9043-0.46688 0.43975-0.86395 0.83614-1.252 1.3066l0.95703 1.0605c-1.6716 1.5928-3.559 3.0058-5.2344 4.2734l-5.2344-4.2695c0.26362-0.3375 0.61925-0.6958 0.90625-0.9668-0.29062-0.36462-0.79136-0.86466-1.209-1.3008-0.26738 0.239-0.5682 0.53577-0.9082 0.85352-0.07637-0.07138-1.0508-1.6664-1.0508-1.9141 0-0.12575 0.30955-0.38191 0.45117-0.55078-0.34-0.372-0.72438-0.68025-0.9375-1.0312-0.24388-0.41025-0.32058-1.3523-0.31445-1.4805v-9.8027zm2.3359 0.78906c-0.23038 0-0.47736 0.36462-0.70898 0.54688-0.16512 0.12562-0.41214 0.17147-0.52539 0.32422 0.2365 0.08362 0.4507 0.0843 0.58008 0.0918 0.266 0.3585 0.27458 0.39453 0.62695 0.39453 0.218 0 0.65625-0.1737 0.65625-0.62695 0-0.09862-0.17928-0.73047-0.62891-0.73047zm9.4805 0c-0.12562 0-0.39977 0.11303-0.52539 0.26953-0.07138 0.08738-0.08639 0.26606-0.19726 0.32031-0.18725 0.09112-0.44584 0.11731-0.68359 0.21094 0.23038 0.15275 0.54991 0.1158 0.78516 0.2168 0.186 0.08125 0.34759 0.33984 0.62109 0.33984 0.34 0 0.60547-0.368 0.60547-0.70312 0-0.26975-0.26547-0.6543-0.60547-0.6543zm-6.2676 1.2129c-0.37212 0.25-0.76283 0.39844-1.2051 0.39844-0.12562 0-1.1549-0.20312-1.2793-0.20312-0.46325 0-1.1074 0.25533-1.1074 0.9082 0 0.26362 0.23997 0.77611 0.54297 0.83398 0.19338 0.03575 0.385 0.11183 0.51562 0.18945-0.07762 0.186-0.20188 0.30814-0.45312 0.49414l0.45508 0.08984c0.16025-0.0505 0.33236-0.165 0.39648-0.25 0.15888 0.19588 0.42358 0.25 0.58008 0.25 0.12562 0 0.21209-0.01239 0.27734-0.10352-0.1725-0.13925-0.35352-0.34453-0.35352-0.47266 0-0.12562 0.33883-0.06136 0.42383-0.09961 0.81788-0.37812 1.5959-0.58812 2.4434-0.71875-0.21188-0.18975-0.62481-0.113-0.80469-0.3125 0.2365-0.21938 0.49358-0.52739 0.64258-0.79102-0.30912 0.12188-0.92995 0.43555-1.2207 0.43555-0.12688 0-0.09133 0.01752-0.12695-0.0059 0.09362-0.17238 0.30419-0.4467 0.27344-0.64258zm9.5156 0c-0.38925 0.28325-1.1518 0.5-1.4844 0.5-0.12562 0-1.1842-0.20117-1.3086-0.20117-0.49775 0-1.0566 0.33642-1.0566 0.9043 0 0.52725 0.7755 0.87919 1.0625 0.92969v0.11328c-0.0985 0.13788-0.27103 0.26476-0.45703 0.35352 0.06275 0.09725 0.0977 0.06137 0.11133 0.15625h0.38281c0.12925 0.0061 0.23542-0.19141 0.35742-0.19141 0.12688 0 0.5323 0.24805 0.6543 0.24805 0.12812 0 0.23986-0.06388 0.30273-0.15625-0.17375-0.138-0.45312-0.26891-0.45312-0.39453 0-0.12812 0.03125-0.06055 0.03125-0.06055 1.0076-0.10475 1.8986-0.66591 2.9863-0.62891-0.21675-0.2095-0.52408-0.2612-0.75195-0.37695 0.239-0.20938 0.49525-0.51817 0.64062-0.82617-0.26725 0.04313-1.1755 0.5332-1.5723 0.5332-0.12438 0-0.03847 0.01209-0.07422-0.0039 0.18112-0.17988 0.62141-0.56344 0.62891-0.89844zm49.203 1.5898c0 1.0162-0.0505 2.0229-0.11328 3.0293-0.006 0.19463 0 0.45186 0 0.64648 1.2466 0 2.4445-0.01705 3.584-0.0293 0.0444-0.89562 0.0802-1.8098 0.0937-2.7227v-0.64844c-1.1222-0.09238-2.3227-0.20026-3.5645-0.27539zm-112.35 0.014c-1.2294 0.09238-2.4269 0.20184-3.5664 0.29297v0.64648c0.0135 0.92762 0.049547 1.842 0.10742 2.7363 1.1395 0.0185 2.3236 0.01758 3.5703 0.01758v-0.64648c-0.0628-1.007-0.1113-2.027-0.1113-3.047zm67.029 0.20508c0.86475 1.9611 2.8332 1.9572 4.2031 2.4277 1.3341 0.45212 2.7669 0.84155 4.1465 1.2949 0.12812-0.13925 0.265-0.40625 0.39062-0.40625 0.23412 0 0.72852 0.5853 0.72852 0.60742 0 0.12325-0.8097 0.80802-1.2051 1.291-1.0077 1.217-1.4102 2.6701-1.4102 3.9648 0 0.12812 0.25195 1.636 0.25195 1.7617 0 0.25-1.3214 0.78125-1.4668 0.78125h-1.3926c-0.12812 0-0.36266 0.19922-0.48828 0.19922-0.1245 0-1.0037-0.55653-1.4707-0.81641 0 0 0.0054-0.05317-0.05859-0.1543 0.40888-0.064 0.44922-0.28086 0.44922-0.53711 0-0.33512-0.18873-0.50391-0.42773-0.50391-0.43362 0-0.47852 0.30066-0.47852 0.50391 0 0.16875-0.07302 0.2233 0.30273 0.49805l-3.9355 4.9023v4.2461h-17.342v-4.3945l-3.977-5.063c0.33014-0.13925 0.39648-0.35669 0.39648-0.53906 0-0.39538-0.18505-0.45312-0.42773-0.45312-0.40282 0-0.47656 0.187-0.47656 0.45312 0 0.175-0.07119 0.21717 0.30078 0.49805-0.27718 0.30425-1.667 1.2129-1.9121 1.2129-0.12565 0-0.77987-0.1543-0.9043-0.1543-0.12565 0-0.57994 0.10352-0.70312 0.10352-0.34492 0-1.5427-0.63559-1.7559-0.73047 0.11575-1.0238 0.19531-1.1842 0.19531-1.8125 0-1.8996-0.49226-3.5354-2.3672-5.3574 0.32275-0.28825 0.63359-0.49889 0.97852-0.65039 0.07888 0.18225 0.17218 0.36966 0.24609 0.50391 2.1841-0.6565 4.4721-1.2463 6.7129-1.9805 0.6295-0.2095 1.4109-0.96203 1.6289-1.6445l0.0957 5.8848c0.21928 2.2716 1.0242 4.8881 2.7871 7.0254 0.31662 0.38188 0.58427 0.83442 0.93164 1.1387 2.157 1.854 4.5642 3.6228 6.7988 5.4238 0.67262-0.54575 1.4069-1.1234 2.0918-1.6875 2.3467-1.944 5.0008-3.425 6.5801-6.3262 0.2685-0.4965 0.54606-1.105 0.80469-1.6211 0.29688-0.58638 0.48777-1.2728 0.65039-1.9023 0.19712-0.76738 0.30145-1.6763 0.43945-2.5078l0.08984-5.4785zm-7.7383 1.457c-0.43612 0.41638-1.2578 1.2354-1.2578 1.3574 0 0.12812 0.76783 0.84159 1.2051 1.2617 0.48538-0.41888 0.84464-0.82322 1.2598-1.3086-0.361-0.48538-0.81778-0.9458-1.207-1.3105zm-5.5098 0.05078c-0.12562 0-1.2812 1.1846-1.2812 1.3066 0 0.12812 0.66741 0.79472 1.207 1.2617 0.43488-0.36712 1.2539-1.157 1.2539-1.2852 0-0.12575-1.0552-1.2832-1.1797-1.2832zm2.7148 0c-0.12325 0-0.86683 0.82197-1.2832 1.3086 0.36712 0.38925 0.77397 0.84327 1.2617 1.2598 0.43488-0.42012 0.88874-0.87455 1.2559-1.3105-0.36712-0.43612-1.1075-1.2578-1.2344-1.2578zm12.883 0.95703c-0.23038 0-0.52734 0.15534-0.52734 0.52734 0 0.10225 0.13044 0.5293 0.47656 0.5293 0.17125 0 0.58008-0.13962 0.58008-0.57812 0-0.17-0.29642-0.47852-0.5293-0.47852zm-25.74 0.14844c-0.33015 0-0.5 0.42294-0.5 0.55469 0 0.207 0.16198 0.50391 0.52539 0.50391 0.24268 0 0.5293-0.20962 0.5293-0.53125 0-0.2365-0.27998-0.52734-0.55469-0.52734zm57.779 0.02344-0.28125 1.8379 0.22461 0.03516c0.0295-0.18975 0.11663-0.27408 0.26563-0.25195l4.125 0.62891-4.5274 3.1855c-0.15275 0.11212-0.25853 0.165-0.3164 0.15625-0.075-0.01113-0.10514-0.07256-0.0879-0.17969l-0.22266-0.0332-0.30664 2.0117 0.22266 0.03516c0.0246-0.15762 0.11064-0.2265 0.25976-0.20312l5.6387 0.86133c0.14913 0.02338 0.211 0.11178 0.1875 0.26953l0.22266 0.0332 0.28711-1.875-0.22266-0.0332c-0.0345 0.2155-0.12444 0.31048-0.27344 0.28711l-3.9492-0.60156 4.2441-3c0.18975-0.14162 0.32009-0.20531 0.38672-0.19531 0.0825 0.01225 0.11867 0.05056 0.10742 0.11719l0.22461 0.03516 0.32422-2.123-0.22266-0.03516c-0.0247 0.15775-0.11064 0.2233-0.25977 0.20117l-5.6406-0.85938c-0.14913-0.02213-0.21213-0.11386-0.1875-0.27148l-0.22266-0.0332zm-92.184 0.73047c-0.20727-0.0042-0.4332 0.01127-0.67774 0.04883l-3.6641 0.56641c-0.14781 0.02225-0.23795-0.0653-0.26758-0.26367l-0.22461 0.03516 0.30664 1.9844 0.22266-0.0332c-0.03819-0.24888 0.01697-0.38288 0.16602-0.40625l3.7266-0.57422c0.52231-0.08 0.90402 0.03031 1.1504 0.33594 0.24638 0.30425 0.42173 0.78098 0.52148 1.4277 0.09859 0.6455 0.07649 1.1498-0.06641 1.5156-0.1429 0.36462-0.47501 0.58784-0.99609 0.66797l-3.7246 0.57617c-0.15034 0.02213-0.2392-0.05786-0.26758-0.24023l-0.22266 0.03516 0.31445 2.0371 0.22266-0.03516c-0.03571-0.23275 0.0221-0.35944 0.16992-0.38281l3.6641-0.56445c0.48782-0.07388 0.88085-0.20756 1.1777-0.39844 0.29689-0.1885 0.51819-0.4395 0.66602-0.75 0.14659-0.31038 0.22016-0.68075 0.22266-1.1094 0.0013-0.42875-0.03805-0.91531-0.12305-1.4609-0.08377-0.54575-0.19169-1.0239-0.32227-1.4316-0.13181-0.40775-0.31405-0.73773-0.54688-0.99023-0.23406-0.25262-0.52133-0.4245-0.86133-0.51562-0.17062-0.04556-0.35914-0.07006-0.56641-0.07422zm102.92 0.55664c-0.0936 1.02-0.20478 2.0215-0.34765 3.0156-0.0149 0.19338 0 0.45298 0 0.64648 1.2502 0.09238 2.4492 0.1688 3.5703 0.2168 0.12437-0.882 0.21692-1.7763 0.31055-2.6953v-0.64648c-1.1222-0.18225-2.3051-0.35098-3.5332-0.53711zm-111.95 0.046c-1.2331 0.186-2.4131 0.38989-3.5391 0.57226v0.64453c0.080125 0.914 0.18613 1.8153 0.31055 2.7109 1.1272-0.0665 2.3235-0.15567 3.5566-0.24805v-0.64648c-0.1429-1.0064-0.25299-2.0095-0.32812-3.0332zm43.487 0.207c-0.26362 0-0.55273 0.28195-0.55273 0.58008 0 0.22912 0.28911 0.52539 0.55273 0.52539 0.20204 0 0.50195-0.29106 0.50195-0.55469 0-0.23288-0.21862-0.55078-0.50195-0.55078zm25.637 0.09766c-0.223 0-0.52734 0.15912-0.52734 0.53125 0 0.239 0.18741 0.5293 0.55078 0.5293 0.2045 0 0.50781-0.2583 0.50781-0.5293 0-0.24025-0.20725-0.53125-0.53125-0.53125zm-15.623 0.05273-1.3066 1.3066c0.46562 0.53712 0.82098 0.94495 1.2559 1.3613l1.3086-1.3066c-0.363-0.487-0.822-0.943-1.259-1.362zm2.709 0c-0.3325 0.372-0.83334 0.87498-1.2461 1.4121l1.3066 1.2559c0.43488-0.41638 1.2559-1.2332 1.2559-1.3613 0-0.12562-0.54769-0.65631-0.83594-0.97656-0.117-0.126-0.297-0.22-0.482-0.331zm2.7227 0c-0.436 0.46938-0.841 0.8747-1.2031 1.3613l1.2539 1.2539c0.49025-0.41512 1.2598-1.1805 1.2598-1.3086 0-0.12562-0.87192-0.99614-1.3105-1.3066zm2.873 0c-0.48775 0.46937-1.2617 1.2566-1.2617 1.3848 0 0.14912 1.0757 1.1196 1.3184 1.2305l1.2012-1.3086-1.2578-1.3066zm-11.123 0.04883c-0.43612 0.42012-1.2051 1.157-1.2051 1.2852 0 0.12562 0.71678 0.81633 1.207 1.2832l1.2578-1.2598c-0.41638-0.4865-0.82002-0.94397-1.2598-1.3086zm-7.1953 1.5625c-0.33014 0-0.50391 0.28722-0.50391 0.52734 0 0.2365 0.17377 0.52734 0.50391 0.52734 0.20204 0 0.50195-0.15897 0.50195-0.52734 0-0.24012-0.16688-0.52734-0.50195-0.52734zm25.637 0.25c-0.223 0-0.52734 0.17128-0.52734 0.50391 0 0.26488 0.20097 0.55469 0.52734 0.55469 0.10838 0 0.53125-0.15925 0.53125-0.53125 0-0.202-0.20725-0.52734-0.53125-0.52734zm-10.135 0.95703c-0.49025 0.46812-0.94967 0.92353-1.3105 1.4102l1.2539 1.2559c0.0715-0.02962 1.2617-1.2015 1.2617-1.332 0-0.12575-0.8157-0.91386-1.2051-1.334zm-8.3574 0.04687-1.2578 1.3105c0.36338 0.48662 1.1079 1.3066 1.2324 1.3066 0.0345 0 1.2871-1.0919 1.2871-1.332 0-0.1245-0.77147-0.86878-1.2617-1.2852zm11.07 0c-0.38425 0.3695-0.89361 0.87553-1.2559 1.3633 0.46688 0.48662 0.82212 0.89178 1.3125 1.2539 0.38438-0.36588 1.2031-1.2077 1.2031-1.332 0-0.1245-0.81989-0.91928-1.2598-1.2852zm-8.3008 0.05469c-0.12562 0-0.89444 0.82197-1.2578 1.3086 0.36338 0.43238 0.81681 0.89152 1.2578 1.3066 0.489-0.41512 1.2559-1.1569 1.2559-1.2812 0-0.12575-1.129-1.334-1.2559-1.334zm-9.8379 0.50195c-0.16754 0-0.58008 0.18777-0.58008 0.52539 0 0.17238 0.25383 0.58203 0.50391 0.58203 0.26731 0 0.55273-0.27903 0.55273-0.58203 0-0.09862-0.09345-0.52539-0.47656-0.52539zm25.512 0.25195c-0.239 0-0.53125 0.24397-0.53125 0.52734 0 0.17 0.1605 0.57812 0.53125 0.57812 0.14038 0 0.5293-0.27561 0.5293-0.55273 0-0.26362-0.2903-0.55273-0.5293-0.55273zm-68.594 0.02344c-1.1974 0.26125-2.3677 0.52306-3.4727 0.78906v0.64453c0.1429 0.89562 0.31203 1.7909 0.49805 2.6914 1.1358-0.14175 2.3233-0.29642 3.5527-0.48242v-0.64648c-0.2191-0.992-0.4055-1.992-0.5792-2.999zm110.95 0.059c-0.15638 1.0015-0.34163 1.9962-0.57813 2.9805-0.0222 0.19225 0 0.45186 0 0.64648 1.2466 0.18975 2.4354 0.35809 3.5527 0.49609 0.19088-0.882 0.35913-1.7775 0.51563-2.6719v-0.64844c-1.1088-0.26125-2.2755-0.54286-3.4902-0.80273zm-78.738 2.0332c0.43362 0.17 0.47656 0.50064 0.47656 0.77539 0 0.94362-0.90625 2.5278-0.90625 2.7188 0 0.28088 2.5333 1.1359 3.5742 1.5781l-6.4785 4.0703h-0.20312l-0.61133-2.375c2.6781-1.5202 3.7247-4.485 4.1484-6.7676zm22.037 0.04687c-0.32638 0-0.44741 0.1125-0.69141 0.57812-0.10838 0.19962-0.4108 0.23147-0.63867 0.38672l0.68555 0.03906c0.18725 0.14162 0.47062 0.35547 0.59375 0.35547 0.17125 0 0.67774-0.24009 0.67774-0.68359 0-0.16875-0.17108-0.67578-0.62695-0.67578zm24.682 0c0.122 0.053 0.14324 0.174 0.17774 0.23438 0.266 1.626 0.57656 3.4861 1.8516 4.9766 0.05912 0.06413 0.10875 0.2508 0.23438 0.38867 0.52725 0.568 1.0903 1.1062 1.5547 1.5547l-0.58203 2.1484-6.5566-4.1211c0.27838-0.1935 0.58305-0.32662 0.88867-0.4375 0.49025-0.18238 2.6348-0.77706 2.6348-1.0703 0-0.12562-0.28392-0.68838-0.38867-1.0469-0.14538-0.49638-0.31641-1.4974-0.31641-1.623 0-0.24638 0.0045-0.74641 0.50195-1.0039zm-21.354 1.0176c-0.45212 0.21312-0.83291 0.43945-1.2383 0.43945-0.12563 0-0.95766-0.19922-1.082-0.19922-0.63575 0-1.2324 0.26855-1.2324 1.1074 0 0.287 0.21375 0.51691 0.42188 0.67578 0.20825 0.15525 0.52847 0.07438 0.68359 0.28125-0.14038 0.16888-0.29369 0.32019-0.39844 0.52344l0.44141 0.02734c0.12688 0 0.23445-0.14844 0.36133-0.14844 0.12438 0 0.37453 0.19726 0.50391 0.19726 0.12438 0 0.20075-0.0492 0.29688-0.08008-0.16388-0.20575-0.40039-0.4225-0.40039-0.54688 0-0.12575 1.1709-0.45414 1.7266-0.61914 0.4385-0.13188 0.89733-0.20992 1.3926-0.29492-0.2575-0.33388-0.74278-0.30144-0.95703-0.38281 0.19212-0.20575 0.40289-0.47309 0.49414-0.77734-0.26362 0.064-0.79667 0.38867-1.123 0.38867-0.122 0-0.0898 0.01486-0.12305-0.0098 0.09488-0.16875 0.2003-0.37866 0.23242-0.58203zm52.545 0.98047c-0.23037 0.98925-0.49484 1.9812-0.79297 2.9434-0.0295 0.19212 0 0.45186 0 0.64648 1.2159 0.27962 2.3817 0.52353 3.5039 0.75391 0.25375-0.86475 0.48512-1.73 0.70312-2.6133v-0.64648c-1.0766-0.35488-2.2118-0.71073-3.4141-1.084zm-109.28 0.02c-1.1838 0.3535-2.3372 0.72716-3.4102 1.082v0.64648c0.21804 0.87825 0.44948 1.7476 0.7168 2.6309 1.1038-0.23525 2.2744-0.49759 3.4902-0.77734v-0.64648c-0.2981-0.977-0.5615-1.948-0.7968-2.936zm67.703 2.6113c0.3585 0 3.6482 2.1195 4.1582 2.4336 1.6409 1.0126 3.3469 2.151 5 3.1895 0.4965 0.31412 1.0599 0.67253 1.6094 1.0039 1.004 0.61838 2.1091 1.2322 3.0527 1.9492 0.12062 0.08862 0.19141 0.40367 0.19141 0.5293 0 0.12688-0.05841 0.27938-0.19141 0.45312l-14.546-9.082c-0.0062-0.26362 0.61248-0.47656 0.72461-0.47656zm-25.541 0.04883c0.17739 0 0.69403 0.1948 0.80859 0.35742-1.2331 1.0076-2.7609 1.8639-4.1172 2.6855-3.6316 2.2075-7.2805 4.3975-10.992 6.5645-0.12811-0.2255-0.28906-0.60094-0.28906-0.72656 0-0.42875 0.38416-0.59089 0.69336-0.75977 0.74036-0.41638 1.5666-0.90009 2.3008-1.3398 2.1767-1.3156 4.3956-2.6732 6.6426-4.0234 0.91652-0.55425 1.855-1.1591 2.8184-1.7109 0.84508-0.48663 1.3574-1.0469 2.1348-1.0469zm-41.041 1.3262c-1.153 0.44838-2.2699 0.88278-3.3281 1.3164v0.64844c0.2932 0.8635 0.58588 1.7121 0.91602 2.5684 1.0902-0.3105 2.2439-0.65306 3.4277-1.0078v-0.64648c-0.3599-0.945-0.7042-1.902-1.0158-2.879zm107.04 0c-0.10475 0.33262-0.21878 0.66124-0.33203 0.99024-0.21688 0.63562-0.44069 1.2654-0.67969 1.8887-0.0345 0.18975 0 0.45311 0 0.64648 1.2022 0.35488 2.3364 0.69606 3.4277 1.0078 0.154-0.39675 0.30119-0.80178 0.44531-1.207 0.0469-0.1355 0.0918-0.27075 0.13868-0.40625 0.0652-0.19088 0.13314-0.38139 0.19726-0.57226 0.0406-0.12325 0.0837-0.24589 0.12305-0.36914v-0.64648c-1.0459-0.43475-2.1636-0.88491-3.3203-1.332zm-42.479 0.94531 4.7559 3.0352h-4.7559v-3.0352zm-56.514 0.30273-0.61914 2.0586 0.03125 0.0625 1.8223 0.60352h0.1543l0.59375-2.0742-0.03516-0.06445-1.9473-0.58594zm90.629 0.59375c-0.669 0.20325-1.3139 0.39002-1.9199 0.61914l-0.15625 0.19141 0.57618 1.9121h0.17382c0.0615 0 1.2004-0.38431 1.7461-0.57031l0.15625-0.125-0.57617-2.0273zm-97.244 2.1016c-1.1038 0.542-2.1767 1.0681-3.209 1.5781v0.64648c0.3597 0.834 0.73428 1.667 1.1211 2.5059 1.0644-0.40275 2.1809-0.83803 3.334-1.2852v-0.64648c-0.44964-0.90912-0.85436-1.854-1.2461-2.7988zm104.16 0.01758c-0.3745 0.94112-0.79739 1.8712-1.2285 2.7988-0.0419 0.18962 0 0.45298 0 0.64648 1.1481 0.44712 2.2696 0.88195 3.334 1.2676 0.38688-0.8205 0.76114-1.6408 1.1035-2.4883v-0.64648c-1.015-0.51-2.088-1.0361-3.209-1.5781zm-62.482 2.2344h21.523c-0.19588 0.53462-1.192 1.0312-1.5566 1.0312h-18.453c-0.12688 0-0.72701-0.21211-1.0312-0.42774-0.19588-0.13175-0.32721-0.34726-0.48242-0.60352zm1.6133 1.1836h17.848c0.3425 0 0.50976 0.22038 0.50976 0.45312 0 0.12575-0.05753 0.32805-0.17578 0.49805h-18.256c-0.16388-0.106-0.33594-0.3723-0.33594-0.49805 0-0.1305 0.14903-0.45312 0.41016-0.45312zm-41.576 0.33789c-1.073 0.62088-2.1017 1.2252-3.0859 1.7969v0.64648c0.41022 0.81675 0.84528 1.6187 1.2949 2.4121 1.0286-0.46562 2.1189-0.97541 3.2227-1.5039v-0.64648c-0.49398-0.87838-0.9783-1.7787-1.4316-2.7051zm100.74 0c-0.44963 0.91412-0.93277 1.8094-1.4316 2.6914-0.0493 0.1885 0 0.45311 0 0.64648 1.121 0.52362 2.2108 1.0344 3.2383 1.5 0.43725-0.78962 0.87405-1.5914 1.2793-2.3945v-0.64648c-0.96213-0.59012-2.0081-1.176-3.0859-1.7969zm-89.326 1.0234-0.18945 0.14062c0.1085 0.14662 0.11256 0.25914 0.0078 0.33789l-3.918 2.9141c-0.10471 0.07762-0.20814 0.04984-0.30664-0.08203l-0.1875 0.14062 1.0762 1.4453 0.1875-0.14062c-0.04687-0.06288-0.07664-0.12686-0.08789-0.19336-0.01237-0.06775 0.0098-0.12219 0.06641-0.16406l1.6016-1.1934 1.373 1.8438c0.0875 0.11825 0.12734 0.2027 0.12109 0.25195-0.0074 0.04925-0.03544 0.09723-0.08594 0.14648l0.13867 0.18945 1.1016-0.82031-0.14062-0.1875c-0.06154 0.0345-0.11453 0.04516-0.16016 0.03516-0.04559-0.0099-0.11047-0.07316-0.19922-0.19141l-1.3711-1.8438 1.1094-0.82617 2.1133 2.8398c0.08745 0.11825 0.13367 0.21366 0.13867 0.28516 0.0049 0.07263-0.01042 0.12256-0.04492 0.14844l0.14062 0.1875 1.1094-0.82617-0.14063-0.18945c-0.05544 0.04188-0.11795 0.0528-0.18945 0.0293-0.07145-0.02213-0.15148-0.09464-0.24023-0.21289l-3.032-4.066zm76.268 0.06641-0.09961 0.12305c0.12325 0.09862 0.10403 0.24862-0.05859 0.45312l-3.4199 4.2871c-0.06025 0.07512-0.12464 0.13742-0.19727 0.18555-0.0715 0.048-0.14922 0.03986-0.23047-0.02539l-0.09766 0.12305 1.3789 1.0977 0.0957-0.12109c-0.11462-0.09238-0.16134-0.18203-0.13672-0.26953 0.02338-0.08625 0.06783-0.16498 0.12695-0.24024l2.6699-3.3496 1.9785 5.7715c0.0367 0.10838 0.0538 0.22441 0.0488 0.34766-0.005 0.12562-0.0291 0.21333-0.0723 0.26758l0.12305 0.09961 1.4648-1.8379-0.12304-0.09766c-0.10225 0.12938-0.20803 0.14988-0.31641 0.0625-0.0555-0.04313-0.0998-0.13039-0.13672-0.25977-0.0358-0.12937-0.0818-0.27053-0.13476-0.42578l-1.95-5.457-0.915-0.734zm-85.674 2.5918c-1.0151 0.696-2.0132 1.3736-2.9297 2.0254v0.64648c0.46689 0.77238 0.94673 1.5451 1.4629 2.3027 0.99782-0.54088 2.0402-1.1272 3.0996-1.748v-0.64648c-0.56174-0.83275-1.1031-1.6968-1.6328-2.5801zm96.725 0c-0.51613 0.88325-1.0761 1.7338-1.6328 2.5801-0.0555 0.18612 0 0.45311 0 0.64648 1.0729 0.60362 2.1136 1.1937 3.1113 1.748 0.499-0.75762 0.98447-1.5304 1.4648-2.3027v-0.64648c-0.935-0.65175-1.9147-1.3294-2.9434-2.0254zm-94.44 3.511c-0.96704 0.77112-1.8983 1.5307-2.7754 2.2402v0.64648c0.51616 0.74538 1.0782 1.4857 1.6387 2.1953 0.94731-0.61712 1.9323-1.2825 2.9609-1.9785v-0.64648c-0.638-0.802-1.247-1.624-1.825-2.457zm92.145 0.01367c-0.58762 0.83275-1.1989 1.655-1.8223 2.4434-0.064 0.1835 0 0.45298 0 0.64648 1.0286 0.696 2.0087 1.3614 2.9609 1.9785 0.5605-0.70962 1.1081-1.4374 1.6328-2.1777v-0.64648c-0.87225-0.72675-1.8057-1.4865-2.7715-2.2441zm-80.186 0.90234c-0.39544-0.037-0.78702 0.01603-1.1738 0.16016-0.38559 0.14538-0.74913 0.39877-1.0879 0.75977-0.34 0.36212-0.57191 0.73939-0.69141 1.1348-0.12075 0.39425-0.14756 0.78681-0.08594 1.1797 0.0616 0.39175 0.20663 0.7742 0.43945 1.1426 0.23406 0.36838 0.52638 0.71534 0.875 1.043 0.34862 0.32775 0.71382 0.59726 1.0957 0.80664 0.38311 0.2095 0.77058 0.33409 1.166 0.37109 0.39542 0.0369 0.78702-0.018 1.1738-0.16211 0.38681-0.14537 0.74912-0.39681 1.0879-0.75781 0.34-0.36212 0.57066-0.74064 0.69141-1.1348 0.1195-0.3955 0.14952-0.79002 0.08789-1.1816-0.0616-0.39175-0.20549-0.778-0.42969-1.1562-0.2242-0.37688-0.51075-0.73097-0.85938-1.0586-0.34862-0.32762-0.71888-0.59139-1.1094-0.79102-0.39175-0.20075-0.78425-0.31847-1.1797-0.35547zm65.268 0.96289c-0.29937 0.032-0.59542 0.12025-0.88867 0.26562-0.29312 0.14662-0.56391 0.32594-0.81641 0.53906-0.38438 0.32762-0.67452 0.65972-0.86914 0.99609-0.19462 0.335-0.33297 0.64267-0.41797 0.91992-0.085 0.27712-0.13733 0.50959-0.1582 0.69922-0.02225 0.191-0.05242 0.30269-0.0918 0.33594-0.03338 0.02825-0.06917 0.04789-0.10742 0.05664-0.037 0.0086-0.07503 0.01859-0.11328 0.02734l-0.04102 0.1543 1.9551 0.22461 0.04102-0.1543c-0.043 0.0025-0.09658-0.01461-0.1582-0.05273-0.06163-0.0395-0.10652-0.07613-0.13477-0.10938-0.11825-0.1405-0.16834-0.31042-0.15234-0.51367 0.016-0.202 0.06859-0.40781 0.15234-0.61719 0.08625-0.2095 0.1943-0.40411 0.32617-0.58398 0.13175-0.181 0.25394-0.32114 0.36719-0.41602 0.11212-0.09613 0.2363-0.18425 0.37305-0.26562 0.13675-0.08125 0.27803-0.13694 0.42578-0.16406 0.14788-0.02938 0.29044-0.02391 0.42969 0.01172 0.13912 0.037 0.26722 0.12455 0.38672 0.26367 0.175 0.20575 0.23886 0.45984 0.19336 0.76172-0.04687 0.30175-0.14298 0.63748-0.28711 1.0059-0.14412 0.36825-0.30603 0.7542-0.48828 1.1582-0.18112 0.40525-0.32283 0.81675-0.42383 1.2344-0.10238 0.41888-0.13578 0.82897-0.09766 1.2305 0.03825 0.40162 0.20648 0.77791 0.50586 1.1289l0.30273 0.35742 0.12109-0.0996c-0.0505-0.0604-0.05778-0.11469-0.01953-0.16406 0.03813-0.0493 0.09214-0.1051 0.16602-0.16797l4.1914-3.5566c0.07275-0.06163 0.14389-0.11732 0.21289-0.16407 0.06775-0.04812 0.13256-0.03356 0.19531 0.03906l0.12109-0.10156-1.125-1.3242-0.11914 0.10156c0.11225 0.133 0.14805 0.24031 0.10742 0.32031-0.04063 0.08012-0.0973 0.15139-0.16992 0.21289l-3.2852 2.7891-0.08398-0.0996c0.03825-0.319 0.12877-0.63075 0.27539-0.9375 0.14538-0.3055 0.30489-0.61556 0.47852-0.92969 0.17375-0.31175 0.34058-0.62364 0.50195-0.93164 0.16138-0.308 0.27952-0.61458 0.35352-0.92383 0.07512-0.30925 0.08355-0.61708 0.0293-0.92383-0.05412-0.30675-0.21559-0.61806-0.48047-0.92969-0.24762-0.292-0.51561-0.48912-0.80273-0.59375-0.28825-0.10338-0.58148-0.139-0.88086-0.10938zm-65.115 0.22852c0.26855 0.01975 0.53088 0.08667 0.78711 0.20117 0.25624 0.11588 0.48619 0.26811 0.68945 0.45898 0.20326 0.18975 0.36819 0.41128 0.5 0.66016 0.13058 0.2475 0.21425 0.50411 0.25 0.77148 0.03575 0.266 0.01723 0.53325-0.05664 0.79688-0.07637 0.26362-0.22121 0.50916-0.43555 0.73828-0.21435 0.22788-0.45224 0.38726-0.71094 0.47852-0.2587 0.09113-0.52247 0.12788-0.79102 0.10938-0.26855-0.01975-0.52892-0.08863-0.78516-0.20312-0.25624-0.11588-0.4862-0.26811-0.68945-0.45898-0.20204-0.191-0.37138-0.40933-0.50195-0.6582-0.13055-0.24762-0.213-0.50606-0.25-0.77344-0.03575-0.26725-0.01653-0.5313 0.05859-0.79492 0.07515-0.26488 0.21924-0.51236 0.43359-0.74023 0.21558-0.22788 0.451-0.38739 0.71094-0.47852 0.25869-0.09113 0.52247-0.12592 0.79102-0.10742zm-9.5879 1.2148c-0.91775 0.834-1.7903 1.6536-2.5996 2.4297v0.64649c0.57406 0.69112 1.183 1.3886 1.7891 2.0723 0.90666-0.696 1.8438-1.4242 2.8047-2.1953v-0.64844c-0.692-0.748-1.358-1.518-2-2.308zm87.102 0c-0.64175 0.78962-1.31 1.5593-1.9961 2.3047-0.0715 0.17988 0 0.45494 0 0.64844 0.96087 0.77113 1.8968 1.4993 2.8047 2.1953 0.62463-0.68362 1.2149-1.3626 1.7891-2.0723v-0.64649c-0.80938-0.77612-1.681-1.5957-2.5977-2.4297zm-71.865 1.9824-0.12891 0.19727c0.12319 0.08137 0.19944 0.14888 0.22656 0.20312 0.02712 0.05288 0.02067 0.11009-0.01758 0.16797l-1.8105 2.7617c-0.14788 0.22537-0.23894 0.4772-0.27344 0.75195-0.0345 0.27462 0.0013 0.55859 0.10352 0.85547 0.10224 0.29687 0.28592 0.59419 0.55078 0.89844 0.26485 0.303 0.61347 0.59776 1.0508 0.88476 0.43732 0.28575 0.84612 0.49058 1.2305 0.61133 0.38435 0.122 0.73202 0.17111 1.0449 0.14648 0.31168-0.0234 0.58842-0.10642 0.82617-0.24804 0.23775-0.14038 0.4303-0.32416 0.57812-0.55078l1.8105-2.7617c0.07145-0.10975 0.18751-0.11061 0.34766-0.006l0.12891-0.19727-1.5176-0.99414-0.13086 0.19531c0.1823 0.1195 0.23947 0.23413 0.16797 0.34375l-1.6445 2.5098c-0.22912 0.34987-0.54135 0.5463-0.93555 0.5918-0.39298 0.0444-0.8534-0.10422-1.377-0.44922-0.52479-0.3425-0.84394-0.70461-0.96094-1.084-0.11579-0.37825-0.05849-0.74192 0.17188-1.0918l1.6426-2.5078c0.07145-0.10975 0.18751-0.11256 0.34766-0.008l0.13086-0.19726-1.5625-1.0234zm-12.484 1.126c-0.38804 0.40662-0.76716 0.81111-1.1367 1.209-0.02962 0.0296-0.05573 0.059-0.08398 0.0898-0.41515 0.44712-0.81848 0.8882-1.209 1.3144-0.07025 0.17987 0 0.45186 0 0.64648 0.64181 0.65163 1.2786 1.2992 1.9512 1.9336 0.85492-0.744 1.7405-1.5469 2.6484-2.3809v-0.64844c-0.75145-0.696-1.4702-1.4237-2.1699-2.1641zm81.584 0.0137c-0.69975 0.72675-1.4337 1.4544-2.168 2.1504h-0.002v0.64844c0.90425 0.834 1.7954 1.6369 2.6367 2.3809 0.50263-0.46313 0.99145-0.95007 1.4707-1.4453 0.1565-0.16138 0.31796-0.3205 0.47071-0.48438l0.004-0.004v-0.64648c-0.74275-0.834-1.572-1.6991-2.4121-2.5996zm-16.277 0.58984c-0.2045-0.0126-0.41369-0.004-0.625 0.0254-0.42375 0.058-0.84381 0.20632-1.2578 0.44532-0.33138 0.19212-0.64144 0.42725-0.92969 0.70312-0.287 0.27725-0.51555 0.58102-0.68555 0.91602-0.16875 0.33387-0.25994 0.68519-0.27344 1.0547-0.01238 0.36962 0.09145 0.74465 0.31445 1.1289 0.1835 0.31788 0.4122 0.54575 0.68945 0.6875 0.27838 0.14163 0.57384 0.21852 0.88672 0.22852 0.31288 0.011 0.63178-0.0335 0.95703-0.13086 0.32513-0.0972 0.62424-0.22436 0.89648-0.38086 0.34612-0.20075 0.64511-0.44839 0.89648-0.74414 0.25125-0.29688 0.48934-0.61508 0.71484-0.95508 0.6085 1.2269 0.32494 2.1805-0.85156 2.8594-0.12075 0.0701-0.26245 0.13733-0.42383 0.20508-0.16138 0.069-0.32958 0.12274-0.50195 0.16211-0.17375 0.0395-0.34562 0.06-0.51562 0.0625-0.16875 0.002-0.31942-0.0219-0.45117-0.0762-0.05175-0.021-0.0975-0.0548-0.14062-0.10156-0.04063-0.0469-0.07345-0.088-0.0957-0.125l-0.17383 0.01 0.03906 1.6367 0.13476 0.0273c0.0345-0.0801 0.09399-0.14524 0.17774-0.19336 0.05912-0.0345 0.15648-0.0508 0.28711-0.0508 0.1305 0 0.29464-0.01 0.49414-0.0293 0.19962-0.0198 0.43322-0.0753 0.69922-0.16406 0.26612-0.0875 0.5682-0.22796 0.9082-0.42383 0.48913-0.28338 0.88955-0.61253 1.2012-0.98828 0.3105-0.37575 0.52727-0.78796 0.65039-1.2363 0.12325-0.4485 0.14809-0.91306 0.07422-1.3984-0.074-0.48537-0.25303-0.97447-0.53516-1.4648-0.239-0.41388-0.5262-0.75494-0.86133-1.0234-0.33625-0.26863-0.70341-0.45666-1.0977-0.56641-0.19769-0.0542-0.39706-0.087-0.60156-0.0996zm-0.30078 1.1484c0.18112 0.001 0.35061 0.0446 0.50586 0.13086 0.1565 0.0862 0.28897 0.22795 0.40234 0.42383 0.11325 0.19587 0.16781 0.38317 0.16406 0.56055-0.0025 0.17737-0.04755 0.34545-0.13867 0.50195-0.08875 0.15762-0.21136 0.30325-0.36523 0.4375-0.154 0.13437-0.32095 0.25405-0.50195 0.35742-0.18112 0.10475-0.36717 0.18936-0.56055 0.25586-0.1935 0.0665-0.3815 0.0996-0.5625 0.0996-0.18112-0.001-0.35061-0.0446-0.50586-0.13086-0.15525-0.0863-0.28909-0.22795-0.40234-0.42383-0.11338-0.19712-0.16656-0.38317-0.16406-0.56055 0.0025-0.17737 0.04867-0.34545 0.13867-0.50195 0.08988-0.15775 0.21123-0.30437 0.36523-0.4375 0.15388-0.13425 0.32291-0.25475 0.50391-0.35937 0.18112-0.1035 0.36717-0.18741 0.56055-0.25391 0.1935-0.0666 0.37955-0.0996 0.56055-0.0996zm-62.014 1.1719c-0.77855 0.95837-1.5112 1.9032-2.2109 2.7852-0.06287 0.1835 0 0.45186 0 0.64649 0.68616 0.61587 1.3709 1.2059 2.0879 1.791 0.77855-0.82037 1.6072-1.6865 2.4609-2.582v-0.64648c-0.7958-0.65175-1.5717-1.2981-2.3379-1.9941zm75.568 0.0312c-0.749 0.68237-1.5272 1.3422-2.3242 1.9766v0.64648c0.84138 0.91288 1.6707 1.7791 2.4492 2.5859 0.717-0.5765 1.4009-1.1623 2.0859-1.7832v-0.64453c-0.6985-0.89688-1.4324-1.8241-2.2109-2.7812zm-19.746 0.45703-1.9629 0.79101 0.06055 0.14649c0.09488-0.0199 0.17498-0.0249 0.24024-0.0137 0.06538 0.0124 0.12039 0.0735 0.16602 0.18554 0.04925 0.122 0.04433 0.24336-0.01367 0.36524-0.05912 0.122-0.15692 0.2122-0.29492 0.26757-0.064 0.0259-0.13766 0.0391-0.22266 0.0391-0.08375 0.001-0.1403-0.0328-0.16992-0.10547l-0.14648 0.0566 0.61719 1.5273 0.14453-0.0586c-0.0025-0.0751 0.02091-0.14275 0.06641-0.20313 0.04563-0.0604 0.10189-0.11676 0.16602-0.16601 0.064-0.0494 0.13316-0.0933 0.20703-0.13281 0.07275-0.0381 0.13673-0.0696 0.19336-0.0918l1.6309 4.0449c0.05537 0.138 0.06141 0.24085 0.01953 0.3086-0.04313 0.0703-0.10417 0.12034-0.18555 0.15234l0.05859 0.14648 1.998-0.80664-0.05859-0.14453c-0.08125 0.0334-0.16164 0.0387-0.24414 0.0215-0.0825-0.0185-0.15153-0.0965-0.20703-0.23438l-2.2344-5.5469c-0.03325-0.08-0.02581-0.15421 0.02344-0.22071 0.04812-0.0665 0.11591-0.12626 0.20703-0.18164l-0.05859-0.14648zm-38.807 0.15234-0.08984 0.21875c0.1454 0.0591 0.19183 0.14878 0.14258 0.26953l-1.8633 4.5137c-0.05051 0.12075-0.14565 0.15093-0.29102 0.0918h-0.002l-0.08984 0.2168 1.4844 0.61328 0.08984-0.21875c-0.16862-0.069-0.22698-0.16245-0.17773-0.2832l1.4492-3.5137 1.6777 4.4219c0.05299 0.14412 0.10336 0.27264 0.14648 0.38476 0.04313 0.11213 0.05742 0.1848 0.04492 0.2168-0.01725 0.0407-0.0547 0.0488-0.11133 0.0254l-0.08789 0.2168 1.5703 0.64648 0.08789-0.21679c-0.14416-0.0591-0.19308-0.14878-0.14258-0.26953l1.8633-4.5137c0.04928-0.12075 0.14883-0.15217 0.29297-0.0918l0.08984-0.2168-1.4727-0.60938-0.08984 0.2168c0.1613 0.0665 0.21527 0.16063 0.16602 0.28125l-1.3496 3.2715-1.6309-4.2617c-0.10345-0.24888-0.14811-0.39492-0.13086-0.43555 0.01225-0.0321 0.0483-0.0401 0.10742-0.0254l0.08984-0.2168-1.7734-0.73242zm-13.805 2.0469c-0.70341 1.0188-1.372 2.0131-1.9941 2.9394-0.05663 0.18487 0 0.45186 0 0.64648 0.71572 0.55438 1.4493 1.1008 2.1934 1.623 0.71695-0.86475 1.4819-1.7918 2.2617-2.7539v-0.64648c-0.84137-0.56788-1.6516-1.1705-2.4609-1.8086zm69.146 0.0312c-0.80925 0.62087-1.6199 1.2235-2.4785 1.8086v0.64648c0.7785 0.95713 1.5312 1.8882 2.2617 2.7715 0.74775-0.5285 1.4773-1.0667 2.1992-1.6211v-0.64844c-0.62825-0.94363-1.2777-1.9334-1.9824-2.957zm-47.252 1.0352-0.04883 0.23047c0.19591 0.0408 0.27908 0.12578 0.25195 0.25391l-1.0059 4.7793c-0.0271 0.12688-0.13812 0.17079-0.33398 0.12891l-0.04883 0.23047 3.6016 0.75977c0.5026 0.10587 0.94695 0.11401 1.3301 0.0254 0.38312-0.0875 0.71241-0.2368 0.98828-0.45118 0.276-0.21187 0.50145-0.47564 0.67383-0.79101 0.17375-0.31538 0.29792-0.65252 0.37305-1.0098 0.07637-0.3585 0.0963-0.71447 0.06055-1.0742-0.03575-0.3585-0.13859-0.69325-0.30859-1-0.17125-0.308-0.41944-0.5799-0.74219-0.8164-0.324-0.23775-0.73691-0.40963-1.2383-0.51563l-3.5527-0.75zm19.816 1.1836c-0.22326-0.0136-0.4618-0.005-0.7168 0.0273l-3.6035 0.45508 0.03125 0.23437c0.19825-0.0259 0.30627 0.0256 0.32227 0.15625l0.61328 4.8457c0.01725 0.12925-0.07506 0.20584-0.27344 0.23047l0.0293 0.23437 3.646-0.47c0.50875-0.064 0.93175-0.19995 1.2656-0.4082 0.33262-0.20938 0.59553-0.45996 0.78516-0.75196 0.19225-0.292 0.31853-0.61525 0.37891-0.96875 0.06037-0.35475 0.06711-0.71392 0.02148-1.0762-0.0455-0.36212-0.14342-0.70741-0.29492-1.0352-0.15025-0.32762-0.35677-0.60767-0.61914-0.84179-0.26238-0.23525-0.58562-0.41105-0.96875-0.5293-0.19219-0.0591-0.39978-0.0958-0.62305-0.10937zm-18.494 0.084 1.6602 0.34961c0.26362 0.0555 0.51252 0.12508 0.74414 0.20508 0.23162 0.0801 0.42342 0.19995 0.57617 0.36133 0.15275 0.16137 0.257 0.37379 0.3125 0.63867 0.05537 0.26475 0.03909 0.61086-0.05078 1.0371-0.09 0.42612-0.21417 0.75329-0.37305 0.98242-0.16025 0.22912-0.34378 0.39075-0.55078 0.48437-0.20688 0.0949-0.43331 0.13555-0.67969 0.12305-0.24635-0.0111-0.502-0.0461-0.76562-0.10156l-1.6621-0.34961 0.78906-3.7305zm-19.82 0.12695c-0.62334 1.052-1.2155 2.0889-1.7637 3.0781-0.04925 0.18837 0 0.45173 0 0.64648 0.765 0.49275 1.5272 0.98821 2.3242 1.4551 0.65414-0.914 1.3396-1.9038 2.043-2.9102v-0.64648c-0.8771-0.52725-1.7486-1.0638-2.6035-1.623zm62.367 0c-0.83638 0.55925-1.7139 1.0958-2.5996 1.623v0.64648c0.717 1.02 1.384 1.9962 2.0566 2.9102 0.77862-0.46687 1.558-0.94508 2.3242-1.4551v-0.64648c-0.5655-0.98925-1.1529-2.0138-1.7812-3.0781zm-30.707 0.0781c-0.0061 0.15775-0.14556 0.23-0.41406 0.21875l-4.6328-0.19922-0.0098 0.23633c0.04313 0.001 0.08703 0.0175 0.12891 0.0508 0.04312 0.0321 0.06234 0.0835 0.05859 0.15234l-0.20898 4.8809c-0.0036 0.069-0.02594 0.11811-0.07031 0.14649-0.04563 0.0281-0.08969 0.0416-0.13281 0.0391l-0.01172 0.23437 4.7891 0.20508c0.1035 0.005 0.19077 0.0129 0.25977 0.0254 0.069 0.011 0.10336 0.0552 0.09961 0.13282l0.23438 0.0117 0.05859-1.3691-0.23438-0.0117c-0.0036 0.0789-0.04178 0.1413-0.11328 0.18555-0.07263 0.0456-0.15905 0.0656-0.26367 0.0605l-3.3398-0.14453 0.06641-1.5371 1.9043 0.0801c0.17362 0.007 0.30747 0.0249 0.40234 0.0508 0.09488 0.0246 0.12716 0.0849 0.09766 0.17968l0.25977 0.0117 0.06055-1.3828-0.23438-0.01c-0.0037 0.0961-0.04303 0.15337-0.11328 0.17187s-0.1783 0.0238-0.32617 0.0176l-2.0098-0.0859 0.05469-1.3047 3.1836 0.13672c0.26975 0.0111 0.40203 0.1005 0.39453 0.26563l0.23438 0.01 0.0625-1.4492-0.23438-0.01zm6.4531 0.69336c0.24512 0 0.46694 0.0521 0.66406 0.1543 0.19712 0.10225 0.36591 0.26907 0.50391 0.50195 0.13912 0.2315 0.23689 0.56484 0.29102 0.99609 0.0555 0.43238 0.04317 0.78228-0.0332 1.0508-0.07512 0.2685-0.19425 0.48022-0.35938 0.63672-0.16375 0.15638-0.36506 0.27085-0.60156 0.33985-0.2365 0.0703-0.49044 0.12104-0.75781 0.15429l-1.6836 0.21289-0.47852-3.7832 1.6855-0.21289c0.26738-0.0332 0.52441-0.0508 0.76953-0.0508zm-34.547 1.4102c-0.54326 1.0964-1.0594 2.1763-1.541 3.2012-0.04187 0.18975 0 0.45311 0 0.64648 0.79702 0.43125 1.6019 0.86455 2.4297 1.2637 0.59254-0.95725 1.1991-1.9768 1.8262-3.041v-0.64649c-0.92145-0.44725-1.8254-0.93108-2.7148-1.4238zm55.234 0c-0.88938 0.49275-1.793 0.9748-2.6973 1.4356v0.64844c0.60988 1.0508 1.2332 2.0849 1.8086 3.0469 0.82775-0.4175 1.6383-0.8397 2.4316-1.2832v-0.64648c-0.48175-1.0236-0.99972-2.0876-1.543-3.2012zm-51.477 1.916c-0.46811 1.1444-0.89159 2.2558-1.2969 3.3066-0.03575 0.19088 0 0.45506 0 0.64844 0.82782 0.38562 1.6703 0.7582 2.5117 1.0957 0.51122-1.0028 1.0582-2.0732 1.5879-3.1856v-0.64648c-0.94855-0.36825-1.8862-0.78388-2.8027-1.2188zm47.736 0c-0.92025 0.43487-1.8542 0.8507-2.8027 1.2363v0.64844c0.52962 1.0951 1.06 2.1644 1.5762 3.166 0.855-0.33762 1.6957-0.71008 2.5234-1.0957v-0.64649c-0.40888-1.0508-0.82875-2.1642-1.2969-3.3086zm-43.904 1.623c-0.37326 1.1751-0.73532 2.3175-1.0605 3.4004-0.02837 0.19212 0 0.45381 0 0.64843 0.85493 0.30926 1.728 0.61979 2.5879 0.89454 0.43609-1.0335 0.90297-2.1342 1.3711-3.2774v-0.64648c-0.97935-0.3105-1.9499-0.64628-2.8984-1.0195zm40.043 0.0176c-0.95338 0.36824-1.9141 0.69145-2.8984 1.002v0.64648c0.44962 1.1444 0.90372 2.2577 1.3398 3.2949 0.87212-0.27962 1.7298-0.57151 2.5859-0.90039v-0.64648c-0.31288-1.0829-0.65409-2.2214-1.0273-3.3965zm-36.023 1.3437c-0.26731 1.2073-0.53034 2.3628-0.76562 3.4629-0.021 0.19337 0 0.45506 0 0.64843 0.87218 0.26113 1.7627 0.49599 2.6484 0.70899 0.34246-1.0655 0.71719-2.2096 1.0781-3.3848v-0.64648c-0.99782-0.23538-1.9828-0.49594-2.9609-0.78907zm32.033 0c-0.98438 0.29313-1.9624 0.55369-2.959 0.78907v0.64648c0.356 1.1739 0.71627 2.3205 1.0723 3.3848 0.88938-0.213 1.7801-0.44786 2.6523-0.70899v-0.64843c-0.23538-1.1001-0.48475-2.2556-0.76562-3.4629zm-27.951 1.0332c-0.2008 1.2245-0.35548 2.4168-0.51562 3.5254-0.0135 0.19337 0 0.45186 0 0.64648 0.89065 0.186 1.793 0.36005 2.6973 0.49805 0.26238-1.0829 0.54139-2.2449 0.82227-3.4473v-0.64648c-1.0102-0.1725-2.0246-0.35942-3.0039-0.57617zm23.9 0c-0.99775 0.218-2.0133 0.4038-3.0234 0.57617v0.64648c0.28088 1.1888 0.54334 2.3509 0.82422 3.4473 0.903-0.1565 1.8078-0.31222 2.6973-0.51172v-0.64453c-0.15525-1.1136-0.3108-2.2892-0.49805-3.5137zm-4.127 0.72851c-1.0151 0.1405-2.0244 0.26597-3.0566 0.33985v0.64648c0.18725 1.2209 0.39088 2.3994 0.57812 3.5117 0.91662-0.0789 1.8247-0.18909 2.7227-0.30859v-0.64649c-0.06288-1.1135-0.15052-2.3073-0.24414-3.543zm-15.66 0.0156c-0.09363 1.2196-0.17345 2.4129-0.23633 3.5254-0.005 0.19462 0 0.45369 0 0.64844 0.42875 0.0652 0.85375 0.11676 1.2812 0.16601 0.14662 0.016 0.29744 0.03 0.44531 0.0449 0.19837 0.0209 0.39608 0.0453 0.5957 0.0625 0.1355 0.0136 0.27145 0.0247 0.4082 0.0371 0.186-1.1136 0.3733-2.293 0.56055-3.4941v-0.64843c-0.36212-0.032-0.71975-0.0705-1.0781-0.10743-0.16262-0.0185-0.32691-0.0323-0.48828-0.0508-0.49762-0.0555-0.99178-0.11584-1.4883-0.18359zm4.1934 0.41797v0.64648c0 1.2381 0.01405 2.4257 0.04492 3.543 0.90412 0.0591 1.8257 0.0938 2.7422 0.10742 0.09363-1.1309 0.18567-2.3197 0.2793-3.543v-0.64648c-1.0286 0-2.0415-0.0446-3.0664-0.10742zm7.2734 0c-1.0101 0.0616-2.0427 0.10547-3.0664 0.10547v0.64843c0.08875 1.2245 0.19939 2.4121 0.30664 3.543 0.92138-0.0125 1.8429-0.0494 2.7422-0.10742 0.0185-1.1309 0.01758-2.3221 0.01758-3.543v-0.64648z" transform="matrix(.8 0 0 -.8 256.14 445.67)" fill="#c8102e"/><path d="m57.709 36.586v2.291h0.51758c-0.0295-1.397-0.04266-1.4616-0.03516-1.4961 0.31788 0.48038 0.61405 0.98067 0.93555 1.498h0.46484v-2.2871h-0.52734c0.03937 1.2935 0.05047 1.3574 0.04297 1.3906-0.266-0.42988-0.56522-0.93198-0.88672-1.3965h-0.51172zm6.5918 0v2.291h0.46484c-0.02825-1.3452-0.04141-1.4101-0.03516-1.4434 0.16262 0.46938 0.31172 0.97009 0.48047 1.4961h0.41211c0.2205-0.52363 0.37062-1.0267 0.5-1.4961v1.4902h0.46484v-2.3379h-0.61524c-0.271 0.43988-0.32214 1.1638-0.57226 1.5-0.16262-0.47425-0.26497-0.97513-0.48047-1.5h-0.61914zm-7.5957 0.0059v2.2852h0.4707v-2.2852h-0.4707zm4.5234 0v0.39648c0.59375-0.01 0.67238-0.01727 0.70312-0.0098v1.8984h0.50391v-1.9121h0.67383v-0.37305h-1.8809zm2.1191 0v2.2852h0.47266v-2.2852h-0.47266zm3.6719 0v2.334h1.6777v-0.39844h-1.1914v-0.6582h1.0391v-0.40039c-0.93862 0.0097-1.0145 0.01742-1.0488 0.01367v-0.49414h1.2012v-0.39648h-1.6777z" transform="matrix(.8 0 0 -.8 256.14 445.67)" fill="#fff"/></g></g></svg>
